<?xml version="1.0" standalone="no"?>
<!DOCTYPE svg PUBLIC "-//W3C//DTD SVG 1.1//EN" "http://www.w3.org/Graphics/SVG/1.1/DTD/svg11.dtd" >
<svg xmlns="http://www.w3.org/2000/svg" xmlns:xlink="http://www.w3.org/1999/xlink" version="1.1">
<metadata>
Created by FontForge 20170910 at Fri Apr 17 15:09:07 2015
 By Jimmy Wärting
Copyright (c) 2014 by Tomas Brousil. All rights reserved.
</metadata>
<defs>
<font id="PacifistaMB-Italic" horiz-adv-x="536" >
  <font-face 
    font-family="PacifistaMB-Italic"
    font-weight="400"
    font-style="italic"
    font-stretch="normal"
    units-per-em="1000"
    panose-1="0 0 0 0 0 0 0 0 0 0"
    ascent="781"
    descent="-219"
    x-height="510"
    cap-height="700"
    bbox="-97 -210 1091.47 925"
    underline-thickness="50"
    underline-position="-100"
    slope="-10"
    unicode-range="U+000D-FB02"
  />
<missing-glyph horiz-adv-x="850" 
d="M110 0v630h630v-630h-630zM425 280l-230 -230h460zM195 580l230 -230l230 230h-460zM460 315l230 -230v460zM390 315l-230 230v-460z" />
    <glyph glyph-name=".notdef" horiz-adv-x="850" 
d="M110 0v630h630v-630h-630zM425 280l-230 -230h460zM195 580l230 -230l230 230h-460zM460 315l230 -230v460zM390 315l-230 230v-460z" />
    <glyph glyph-name=".null" horiz-adv-x="0" 
 />
    <glyph glyph-name=".null" horiz-adv-x="0" 
 />
    <glyph glyph-name="nonmarkingreturn" horiz-adv-x="333" 
 />
    <glyph glyph-name="CR" unicode="&#xd;" horiz-adv-x="0" 
 />
    <glyph glyph-name="space" unicode=" " horiz-adv-x="300" 
 />
    <glyph glyph-name="exclam" unicode="!" horiz-adv-x="258" 
d="M251 700l-90 -505h-77l89 505h78zM147 113l-19 -113h-78l20 113h77z" />
    <glyph glyph-name="quotedbl" unicode="&#x22;" horiz-adv-x="365" 
d="M114 423l39 277h88l-59 -277h-68zM252 423l39 277h87l-59 -277h-67z" />
    <glyph glyph-name="numbersign" unicode="#" horiz-adv-x="731" 
d="M117 0l64 199h-137v63h157l56 177h-133v62h153l64 199h69l-224 -700h-69zM362 0l63 199h-97l20 63h97l57 177h-98l20 62h98l64 199h68l-64 -199h137v-62h-157l-56 -177h133v-63h-153l-64 -199h-68z" />
    <glyph glyph-name="dollar" unicode="$" horiz-adv-x="627" 
d="M379 820h78l-20 -112q207 -20 171 -218h-82q25 148 -140 148q-86 0 -136 -36.5t-50 -107.5q0 -74 90 -91l17 -3l-14 -80l-35 7q-146 30 -146 150q0 97 65.5 160.5t182.5 71.5zM213 -120l21 112q-100 9 -147.5 63.5t-29.5 154.5h82q-26 -148 145 -148q88 0 140 38t52 114
q0 71 -90 88l-21 4l15 79l37 -7q147 -27 147 -146q0 -103 -68 -168t-185 -72l-20 -112h-78z" />
    <glyph glyph-name="percent" unicode="%" horiz-adv-x="824" 
d="M127 554l6 31q10 58 49.5 89t100.5 31t91 -32.5t20 -90.5l-5 -28h-61l5 31q6 32 -9 49.5t-48 17.5t-54.5 -17.5t-27.5 -49.5l-5 -31h-62zM114 479h62l-6 -31q-11 -67 57 -67q33 0 55 17.5t27 49.5l6 31h61l-5 -31q-10 -59 -49.5 -90t-100.5 -31t-91.5 32.5t-20.5 90.5z
M490 222l6 31q10 58 49 89t100 31t91.5 -32.5t20.5 -90.5l-5 -28h-61l5 31q6 32 -9 49.5t-48 17.5t-54.5 -17.5t-27.5 -49.5l-5 -31h-62zM477 147h61l-5 -31q-6 -32 9 -49.5t48 -17.5t54.5 17.5t27.5 49.5l5 31h62l-6 -31q-10 -59 -49 -90t-100 -31t-91.5 32.5t-20.5 90.5z
M96 0l601 700h74l-601 -700h-74z" />
    <glyph glyph-name="ampersand" unicode="&#x26;" horiz-adv-x="650" 
d="M343 635q-64 -9 -99.5 -49.5t-35.5 -99.5q0 -44 30.5 -71.5t90.5 -27.5h348l-12 -72h-110l-55 -315h-83l55 315h-158q-81 0 -128 -46t-47 -112q0 -95 127 -95q46 0 89 18l-13 -74q-53 -16 -105 -16q-90 0 -137.5 41t-47.5 107q0 70 43.5 129t119.5 86q-92 35 -92 131
q0 91 61.5 153.5t170.5 71.5zM418 635l12 73q90 -10 132 -59t29 -127l-4 -22h-82l2 14q17 105 -89 121z" />
    <glyph glyph-name="quotesingle" unicode="'" horiz-adv-x="228" 
d="M114 423l39 277h88l-59 -277h-68z" />
    <glyph glyph-name="parenleft" unicode="(" horiz-adv-x="292" 
d="M232 -112h-79q-90 139 -90 319q0 167 65.5 326t187.5 279h79q-116 -117 -184.5 -274t-68.5 -323q0 -186 90 -327z" />
    <glyph glyph-name="parenright" unicode=")" horiz-adv-x="292" 
d="M103 812h79q90 -139 90 -318q0 -168 -65.5 -326.5t-187.5 -279.5h-79q116 117 184.5 274.5t68.5 322.5q0 186 -90 327z" />
    <glyph glyph-name="asterisk" unicode="*" horiz-adv-x="460" 
d="M93 589l28 55l149 -60l24 173h57l-37 -172l171 59l8 -54l-171 -47l81 -134l-51 -33l-71 143l-121 -143l-41 33l129 134z" />
    <glyph glyph-name="plus" unicode="+" horiz-adv-x="512" 
d="M247 384l35 198h71l-35 -198h191l-11 -67h-192l-34 -196h-71l35 196h-190l11 67h190z" />
    <glyph glyph-name="comma" unicode="," horiz-adv-x="228" 
d="M4 -115l53 238h87l-82 -238h-58z" />
    <glyph glyph-name="hyphen" unicode="-" horiz-adv-x="259" 
d="M29 222l11 67h199l-11 -67h-199z" />
    <glyph glyph-name="period" unicode="." horiz-adv-x="228" 
d="M30 0l22 123h87l-21 -123h-88z" />
    <glyph glyph-name="slash" unicode="/" horiz-adv-x="311" 
d="M-92 -112l467 924h71l-467 -924h-71z" />
    <glyph glyph-name="zero" unicode="0" horiz-adv-x="622" 
d="M99 390l17 97q19 107 91 165t185 58q112 0 167.5 -60.5t36.5 -167.5l-16 -92h-83l18 97q13 72 -21.5 111.5t-108.5 39.5q-75 0 -124.5 -39.5t-62.5 -111.5l-17 -97h-82zM85 315h83l-18 -102q-13 -72 21.5 -111.5t108.5 -39.5q75 0 124.5 39.5t61.5 111.5l18 102h82
l-17 -102q-19 -107 -91 -165t-185 -58q-112 0 -168 60.5t-37 167.5z" />
    <glyph glyph-name="one" unicode="1" horiz-adv-x="373" 
d="M78 475l17 93l123 78l-16 -92zM180 0l123 700h83l-123 -700h-83z" />
    <glyph glyph-name="two" unicode="2" horiz-adv-x="602" 
d="M112 465l6 36q16 94 76 147t155 60l-13 -73q-55 -8 -90 -42.5t-45 -91.5l-7 -36h-82zM130 147l276 235q94 81 94 160q0 37 -23 61.5t-66 31.5l13 73q81 -10 120.5 -52t39.5 -100q0 -121 -129 -225l-216 -184h-109zM30 0l12 72h472l-12 -72h-472z" />
    <glyph glyph-name="three" unicode="3" horiz-adv-x="602" 
d="M217 -8q-90 11 -132.5 60.5t-28.5 126.5l5 27h82l-3 -19q-17 -104 90 -122zM292 -9l13 74q60 8 98.5 48t38.5 108q0 41 -31 67.5t-95 26.5h-51l12 72h52q75 0 120.5 42.5t45.5 109.5q0 38 -22 64t-67 32l13 73q79 -8 121 -49t42 -105q0 -70 -37.5 -124.5t-107.5 -80.5
q90 -34 90 -128q0 -100 -65.5 -161.5t-169.5 -68.5zM112 495l4 25q13 80 72 130.5t156 58.5l-13 -74q-55 -7 -89.5 -39t-43.5 -82l-4 -19h-82z" />
    <glyph glyph-name="four" unicode="4" horiz-adv-x="562" 
d="M18 159l13 72l316 469h92l-319 -469h139l-13 -72h-228zM294 0l70 397h82l-29 -166h116l-13 -72h-116l-28 -159h-82z" />
    <glyph glyph-name="five" unicode="5" horiz-adv-x="602" 
d="M221 -8q-87 11 -129.5 62.5t-27.5 139.5h82q-10 -55 13.5 -88t74.5 -41zM296 -8l13 73q61 11 102.5 63.5t41.5 140.5q0 116 -123 116q-110 0 -158 -80h-80l101 395h69l-79 -309q73 61 169 61q89 0 136.5 -46.5t47.5 -125.5q0 -131 -69.5 -205.5t-170.5 -82.5zM320 628
l18 72h242l-13 -72h-247z" />
    <glyph glyph-name="six" unicode="6" horiz-adv-x="607" 
d="M224 -7q-87 11 -130 69.5t-27 148.5l52 295q15 88 74.5 141.5t157.5 61.5l-13 -74q-56 -8 -91.5 -41.5t-44.5 -87.5l-53 -298q-11 -58 12.5 -95.5t75.5 -47.5zM299 -8l13 73q61 11 101.5 58t40.5 123q0 50 -31.5 79.5t-96.5 29.5q-40 0 -77 -14l12 66q45 15 93 15
q94 0 139 -46t45 -117q0 -119 -68.5 -188.5t-170.5 -78.5zM413 635l13 73q90 -10 132.5 -62.5t26.5 -142.5h-82q10 57 -13.5 90.5t-76.5 41.5z" />
    <glyph glyph-name="seven" unicode="7" horiz-adv-x="542" 
d="M79 0l363 553h86l-353 -553h-96zM105 628l13 72h472l-13 -72h-472z" />
    <glyph glyph-name="eight" unicode="8" horiz-adv-x="607" 
d="M224 -8q-90 8 -132.5 51t-42.5 106q0 73 39.5 127t109.5 81q-74 39 -74 127q0 93 61 153.5t165 71.5l-12 -74q-64 -11 -98.5 -51t-34.5 -96q0 -43 30.5 -70.5t96.5 -27.5q76 0 123 41t47 112q0 35 -22 60t-67 32l12 73q82 -10 122.5 -51t40.5 -98q0 -70 -35.5 -122
t-97.5 -79q88 -40 88 -133q0 -104 -68.5 -165t-175.5 -69l13 73q65 9 106.5 48.5t41.5 107.5q0 45 -33.5 73.5t-106.5 28.5q-85 0 -135.5 -43t-50.5 -115q0 -38 25 -65t78 -35z" />
    <glyph glyph-name="nine" unicode="9" horiz-adv-x="607" 
d="M224 -8q-92 11 -133.5 63.5t-25.5 141.5h82q-20 -115 90 -132zM299 -9l13 74q116 18 136 129l53 298q10 58 -13 95.5t-76 47.5l13 72q88 -11 131 -70t27 -148l-52 -295q-15 -87 -74.5 -141t-157.5 -62zM112 441q0 116 67.5 187t170.5 80l-13 -73q-60 -11 -100.5 -58
t-40.5 -123q0 -47 30.5 -78t97.5 -31q41 0 77 14l-12 -66q-43 -15 -93 -15q-94 0 -139 46t-45 117z" />
    <glyph glyph-name="colon" unicode=":" horiz-adv-x="228" 
d="M30 0l22 123h87l-21 -123h-88zM98 388l21 122h88l-22 -122h-87z" />
    <glyph glyph-name="semicolon" unicode=";" horiz-adv-x="228" 
d="M98 388l21 122h88l-22 -122h-87zM4 -115l53 238h87l-82 -238h-58z" />
    <glyph glyph-name="less" unicode="&#x3c;" horiz-adv-x="512" 
d="M46 317l11 70l422 -172l-12 -75zM249 388l-86 36l378 138l-13 -75z" />
    <glyph glyph-name="equal" unicode="=" horiz-adv-x="512" 
d="M79 509h452l-11 -67h-452zM35 259h452l-12 -67h-452z" />
    <glyph glyph-name="greater" unicode="&#x3e;" horiz-adv-x="512" 
d="M305 314l87 -36l-377 -138l12 75zM498 315l-422 173l13 74l421 -177z" />
    <glyph glyph-name="question" unicode="?" horiz-adv-x="627" 
d="M116 490l4 24q14 84 78.5 135.5t161.5 59.5l-12 -68q-63 -9 -102.5 -42.5t-47.5 -84.5l-4 -24h-78zM268 195l33 189h39q83 0 137 41t54 117q0 38 -27 65t-81 34l12 67q84 -8 129.5 -50.5t45.5 -105.5q0 -102 -68.5 -162.5t-174.5 -69.5l-22 -125h-77zM234 0l20 113h77
l-19 -113h-78z" />
    <glyph glyph-name="at" unicode="@" horiz-adv-x="1039" 
d="M303 192l24 138q16 93 72.5 141.5t144.5 48.5q50 0 83 -14l-12 -66q-29 13 -65 13q-123 0 -145 -118l-26 -148q-10 -58 19 -94t86 -36q45 0 84 20q2 -21 17 -58q-55 -29 -124 -29q-89 0 -131.5 54.5t-26.5 147.5zM771 66q64 0 107.5 92t43.5 194q0 135 -84.5 214
t-231.5 79q-132 0 -241 -60t-173.5 -173t-64.5 -257q0 -136 84 -215t233 -79q119 0 223 53l25 -63q-117 -56 -248 -56q-182 0 -285.5 96t-103.5 262q0 163 74.5 291.5t199.5 197t277 68.5q181 0 284.5 -96t103.5 -262q0 -144 -65.5 -248t-164.5 -104q-70 0 -103 43t-18 127
l60 340h77l-64 -366q-7 -37 8.5 -57.5t46.5 -20.5z" />
    <glyph glyph-name="A" unicode="A" horiz-adv-x="618" 
d="M-40 0l338 619l22 -117l-272 -502h-88zM231 180l39 72h176l-87 448h84l135 -700h-84l-35 180h-228z" />
    <glyph glyph-name="B" unicode="B" horiz-adv-x="617" 
d="M30 0l123 700h83l-123 -700h-83zM188 0l12 72h139q67 0 108 39t41 119q0 36 -24.5 60.5t-80.5 24.5h-140l12 72h125q70 0 109.5 41.5t39.5 113.5q0 86 -106 86h-125l13 72h133q86 0 129.5 -38t43.5 -103q0 -70 -31.5 -124t-90.5 -81q77 -34 77 -123q0 -110 -62 -170.5
t-164 -60.5h-158z" />
    <glyph glyph-name="C" unicode="C" horiz-adv-x="647" 
d="M250 -8q-104 12 -155 78t-32 176l38 213q20 112 91 176.5t185 73.5l-13 -73q-73 -11 -120.5 -56.5t-60.5 -121.5l-38 -218q-14 -75 17.5 -120.5t100.5 -55.5zM325 -9l13 74q69 9 113.5 50t57.5 110h82q-19 -107 -88 -166t-178 -68zM439 636l13 72q100 -11 150 -71.5
t33 -161.5h-82q12 70 -18 111t-96 50z" />
    <glyph glyph-name="D" unicode="D" horiz-adv-x="657" 
d="M30 0l123 700h83l-123 -700h-83zM188 0l12 72h92q90 0 147.5 45.5t72.5 129.5l36 206q15 84 -26.5 129.5t-129.5 45.5h-94l13 72h89q127 0 189.5 -64.5t41.5 -182.5l-36 -207q-21 -119 -102 -182.5t-208 -63.5h-97z" />
    <glyph glyph-name="E" unicode="E" horiz-adv-x="562" 
d="M30 0l123 700h452l-13 -72h-369l-98 -556h369l-12 -72h-452zM243 315l12 72h244l-12 -72h-244z" />
    <glyph glyph-name="F" unicode="F" horiz-adv-x="502" 
d="M30 0l123 700h432l-13 -72h-349l-110 -628h-83zM239 295l13 72h224l-13 -72h-224z" />
    <glyph glyph-name="G" unicode="G" horiz-adv-x="654" 
d="M396 10q-51 -20 -119 -20q-118 0 -176.5 67.5t-37.5 188.5l38 213q19 113 91.5 177t184.5 73l-13 -73q-73 -11 -120.5 -56.5t-60.5 -121.5l-38 -218q-15 -85 26 -131.5t128 -46.5q62 0 110 23zM469 0l50 284h-221l13 72h303l-62 -356h-83zM439 636l13 72
q102 -9 152.5 -65.5t32.5 -157.5h-83q12 66 -18 104.5t-97 46.5z" />
    <glyph glyph-name="H" unicode="H" horiz-adv-x="662" 
d="M30 0l123 700h83l-56 -313h282l-12 -72h-282l-55 -315h-83zM469 0l123 700h83l-123 -700h-83z" />
    <glyph glyph-name="I" unicode="I" horiz-adv-x="223" 
d="M30 0l123 700h83l-123 -700h-83z" />
    <glyph glyph-name="J" unicode="J" horiz-adv-x="582" 
d="M186 -8q-97 12 -142.5 72.5t-23.5 163.5h83q-14 -71 11.5 -112.5t84.5 -50.5zM261 -9l13 74q61 9 101.5 48.5t51.5 104.5l85 482h83l-85 -482q-18 -101 -82 -159.5t-167 -67.5z" />
    <glyph glyph-name="K" unicode="K" horiz-adv-x="578" 
d="M30 0l123 700h83l-123 -700h-83zM246 325l22 125l269 250h109zM445 0l-153 266l66 61l185 -327h-98z" />
    <glyph glyph-name="L" unicode="L" horiz-adv-x="542" 
d="M30 0l123 700h83l-123 -700h-83zM188 0l12 72h294l-12 -72h-294z" />
    <glyph glyph-name="M" unicode="M" horiz-adv-x="742" 
d="M30 0l123 700h83l-123 -700h-83zM353 128l-95 267l28 157l95 -266l191 269l-28 -158zM550 0l123 700h82l-123 -700h-82z" />
    <glyph glyph-name="N" unicode="N" horiz-adv-x="662" 
d="M30 0l97 554l59 -134l-73 -420h-83zM462 0l-309 700h90l309 -700h-90zM578 145l-59 135l73 420h83z" />
    <glyph glyph-name="O" unicode="O" horiz-adv-x="662" 
d="M252 -8q-108 11 -158 76.5t-31 175.5l38 215q19 112 91 176.5t187 73.5l-13 -73q-74 -11 -122 -56.5t-61 -120.5l-38 -220q-13 -76 18 -121t102 -54zM327 -9l13 74q73 10 120.5 54.5t60.5 119.5l39 220q13 76 -18.5 121.5t-100.5 55.5l13 72q105 -11 155.5 -77.5
t31.5 -176.5l-37 -215q-19 -111 -90.5 -174.5t-186.5 -73.5z" />
    <glyph glyph-name="P" unicode="P" horiz-adv-x="587" 
d="M30 0l123 700h83l-123 -700h-83zM234 265l13 72h97q76 0 126 47t50 140q0 104 -118 104h-104l13 72h105q97 0 144 -43t47 -120q0 -129 -75 -200.5t-197 -71.5h-101z" />
    <glyph glyph-name="Q" unicode="Q" horiz-adv-x="652" 
d="M252 -8q-108 11 -158 76.5t-31 175.5l38 215q19 112 91 176.5t187 73.5l-13 -73q-74 -11 -122 -56.5t-61 -120.5l-38 -220q-13 -76 18 -121t102 -54zM327 -9l13 74q73 10 120.5 54.5t60.5 119.5l39 220q13 76 -18.5 121.5t-100.5 55.5l13 72q105 -11 155.5 -77.5
t31.5 -176.5l-37 -215q-19 -111 -90.5 -174.5t-186.5 -73.5zM262 -160l12 72h322l-13 -72h-321z" />
    <glyph glyph-name="R" unicode="R" horiz-adv-x="622" 
d="M450 0l-86 265h-15h-115l13 72h111q76 0 126 47t50 140q0 104 -118 104h-118l13 72h119q97 0 144 -43t47 -120q0 -102 -46.5 -167.5t-128.5 -90.5l91 -279h-87zM30 0l123 700h83l-123 -700h-83z" />
    <glyph glyph-name="S" unicode="S" horiz-adv-x="627" 
d="M235 -8q-101 8 -148.5 63t-29.5 155h82q-23 -130 109 -146zM310 -9l13 73q70 8 111.5 45t41.5 105q0 70 -90 88l-128 25q-146 29 -146 150q0 96 65 160t184 72l-12 -73q-67 -6 -108 -42t-41 -100q0 -73 90 -91l127 -25q147 -28 147 -146q0 -103 -67 -168t-187 -73z
M424 636l12 72q207 -19 172 -218h-82q22 129 -102 146z" />
    <glyph glyph-name="T" unicode="T" horiz-adv-x="565" 
d="M201 0l97 553h83l-97 -553h-83zM80 628l13 72h545l-13 -72h-545z" />
    <glyph glyph-name="U" unicode="U" horiz-adv-x="657" 
d="M248 -8q-100 12 -148.5 75t-30.5 169l82 464h82l-82 -469q-13 -71 16 -114t94 -53zM323 -9l13 74q69 10 113.5 52.5t57.5 113.5l83 469h82l-82 -469q-19 -108 -88 -169.5t-179 -70.5z" />
    <glyph glyph-name="V" unicode="V" horiz-adv-x="613" 
d="M199 105l-116 595h84l93 -483zM227 0l381 700h88l-381 -700h-88z" />
    <glyph glyph-name="W" unicode="W" horiz-adv-x="860" 
d="M134 127l-53 573h81l37 -428zM160 0l311 700h80l38 -425l-63 -139l-40 414l-246 -550h-80zM549 0l311 700h85l-311 -700h-85z" />
    <glyph glyph-name="X" unicode="X" horiz-adv-x="602" 
d="M-20 0l586 700h99l-586 -700h-99zM239 426l-136 274h93l101 -204zM449 0l-101 204l58 70l136 -274h-93z" />
    <glyph glyph-name="Y" unicode="Y" horiz-adv-x="602" 
d="M231 351l-148 349h94l111 -274zM220 0l48 276l319 424h98l-337 -438l-46 -262h-82z" />
    <glyph glyph-name="Z" unicode="Z" horiz-adv-x="577" 
d="M-5 0l12 72l571 628h47l-13 -72l-571 -628h-46zM105 628l13 72h360l-66 -72h-307zM141 0l66 72h307l-12 -72h-361z" />
    <glyph glyph-name="bracketleft" unicode="[" horiz-adv-x="297" 
d="M380 812l-13 -72h-124l-138 -780h125l-13 -72h-207l163 924h207z" />
    <glyph glyph-name="backslash" unicode="\" horiz-adv-x="311" 
d="M138 812l145 -924h-66l-145 924h66z" />
    <glyph glyph-name="bracketright" unicode="]" horiz-adv-x="297" 
d="M-40 -112l13 72h125l137 780h-124l13 72h206l-163 -924h-207z" />
    <glyph glyph-name="asciicircum" unicode="^" horiz-adv-x="509" 
d="M55 374l267 470h81l-267 -470h-81zM425 374l-52 265l53 95l78 -360h-79z" />
    <glyph glyph-name="underscore" unicode="_" horiz-adv-x="510" 
d="M453 -67h-500l10 57h500z" />
    <glyph glyph-name="grave" unicode="`" horiz-adv-x="283" 
d="M294 580h-58l-96 160h77z" />
    <glyph glyph-name="a" unicode="a" horiz-adv-x="597" 
d="M49 192l24 138q16 92 72.5 141t144.5 49q48 0 83 -14l-12 -66q-29 13 -65 13q-60 0 -97 -30.5t-47 -87.5l-26 -148q-10 -58 19 -94t85 -36q39 0 73 15q2 -40 9 -60q-44 -22 -105 -22q-88 0 -131 54.5t-27 147.5zM384 141l66 369h77l-64 -362q-10 -57 5 -76.5t75 -3.5
l-11 -63q-93 -31 -129 3.5t-19 132.5z" />
    <glyph glyph-name="b" unicode="b" horiz-adv-x="549" 
d="M30 0l130 740h78l-130 -740h-78zM185 4l11 65q33 -12 64 -12q60 0 97 31t47 88l26 147q10 58 -19 94t-85 36q-34 0 -65 -12l12 68q35 11 76 11q89 0 131.5 -54t26.5 -147l-24 -138q-16 -93 -72.5 -142t-144.5 -49q-47 0 -81 14z" />
    <glyph glyph-name="c" unicode="c" horiz-adv-x="526" 
d="M191 -7q-78 9 -117.5 57.5t-24.5 130.5l26 149q15 84 68.5 132.5t140.5 56.5l-12 -69q-101 -17 -118 -115l-28 -159q-17 -99 77 -116zM266 -8l12 69q96 17 113 112h77q-14 -79 -66 -126t-136 -55zM347 450l12 67q76 -9 114 -56t25 -123h-78q8 46 -11 75t-62 37z" />
    <glyph glyph-name="d" unicode="d" horiz-adv-x="549" 
d="M51 192l24 138q16 92 73 141t144 49q49 0 82 -14l-12 -65q-29 12 -64 12q-123 0 -145 -118l-26 -148q-10 -58 19 -94t86 -36q36 0 65 12l-12 -68q-35 -11 -76 -11q-89 0 -131.5 54.5t-26.5 147.5zM361 0l130 740h78l-130 -740h-78z" />
    <glyph glyph-name="e" unicode="e" 
d="M191 -7q-78 9 -117.5 57.5t-24.5 130.5l26 149q14 83 68 132t141 57l-12 -69q-48 -8 -79 -37.5t-39 -77.5l-7 -40h265l7 40q9 47 -9.5 77t-62.5 38l12 67q76 -10 114 -58t23 -129l-17 -97h-343l-10 -57q-8 -48 11.5 -78.5t65.5 -37.5zM266 -9l12 69q44 8 72.5 34t37.5 64
h77q-17 -72 -67.5 -115t-131.5 -52z" />
    <glyph glyph-name="f" unicode="f" horiz-adv-x="365" 
d="M55 -200l99 568h78l-99 -568h-78zM58 443l12 67h110l8 46q7 39 15 66t22 53.5t32.5 40t46.5 25t64.5 9.5t86.5 -8l-11 -64q-62 12 -99 1t-53 -36.5t-26 -80.5l-9 -52h158l-12 -67h-345z" />
    <glyph glyph-name="g" unicode="g" horiz-adv-x="549" 
d="M188 -210q-97 0 -144 48t-32 134h78q-10 -55 19 -85t90 -30q64 0 106 31.5t52 89.5l94 532h77l-93 -527q-16 -93 -81.5 -143t-165.5 -50zM55 212l20 118q16 92 73 141t144 49q49 0 82 -14l-12 -65q-29 12 -64 12q-123 0 -145 -118l-22 -128q-10 -58 19 -94t86 -36
q36 0 65 12l-12 -68q-35 -11 -76 -11q-89 0 -131.5 54.5t-26.5 147.5z" />
    <glyph glyph-name="h" unicode="h" horiz-adv-x="559" 
d="M30 0l130 740h78l-130 -740h-78zM374 0l59 338q10 57 -19 86t-88 29q-33 0 -65 -11l12 68q39 10 75 10q90 0 133.5 -47.5t27.5 -139.5l-58 -333h-77z" />
    <glyph glyph-name="i" unicode="i" horiz-adv-x="218" 
d="M30 0l90 510h77l-89 -510h-78zM137 610l20 113h78l-20 -113h-78z" />
    <glyph glyph-name="j" unicode="j" horiz-adv-x="238" 
d="M157 610l20 113h78l-20 -113h-78zM43 -39l97 549h77l-95 -541q-18 -103 -65.5 -147t-153.5 -20l11 64q61 -13 89 9t40 86z" />
    <glyph glyph-name="k" unicode="k" horiz-adv-x="484" 
d="M30 0l130 740h78l-130 -740h-78zM223 227l21 117l177 166h102zM362 0l-94 166l60 58l127 -224h-93z" />
    <glyph glyph-name="l" unicode="l" horiz-adv-x="303" 
d="M59 167l101 573h78l-102 -580q-12 -65 13 -86.5t109 -9.5l-10 -64q-131 -24 -169 20t-20 147z" />
    <glyph glyph-name="m" unicode="m" horiz-adv-x="808" 
d="M30 0l90 510h77l-89 -510h-78zM327 0l59 338q20 115 -84 115q-20 0 -40 -6l12 68q20 5 49 5q81 0 118 -48t21 -139l-58 -333h-77zM623 0l59 338q22 115 -84 115q-32 0 -61 -15q-3 27 -18 56q43 26 100 26q79 0 117.5 -47.5t22.5 -139.5l-58 -333h-78z" />
    <glyph glyph-name="n" unicode="n" horiz-adv-x="559" 
d="M30 0l90 510h77l-89 -510h-78zM374 0l59 338q10 57 -19 86t-88 29q-33 0 -65 -11l12 68q39 10 75 10q90 0 133.5 -47.5t27.5 -139.5l-58 -333h-77z" />
    <glyph glyph-name="o" unicode="o" 
d="M189 -7q-77 9 -115.5 57.5t-24.5 130.5l26 149q15 84 68.5 132t138.5 56l-12 -68q-98 -18 -116 -115l-28 -159q-17 -100 75 -116zM264 -8l12 69q98 19 116 118l27 156q9 49 -10.5 78t-63.5 37l12 67q77 -9 115 -57t24 -130l-26 -146q-15 -85 -68.5 -135t-137.5 -57z" />
    <glyph glyph-name="p" unicode="p" horiz-adv-x="549" 
d="M-6 -200l126 710h78l-126 -710h-78zM185 4l11 65q33 -12 64 -12q60 0 97 31t47 88l26 147q10 58 -19 94t-85 36q-34 0 -65 -12l12 68q35 11 76 11q89 0 131.5 -54t26.5 -147l-24 -138q-16 -93 -72.5 -142t-144.5 -49q-47 0 -81 14z" />
    <glyph glyph-name="q" unicode="q" horiz-adv-x="549" 
d="M325 -200l125 710h78l-125 -710h-78zM51 192l24 138q16 92 73 141t144 49q49 0 82 -14l-12 -65q-29 12 -64 12q-123 0 -145 -118l-26 -148q-10 -58 19 -94t86 -36q36 0 65 12l-12 -68q-35 -11 -76 -11q-89 0 -131.5 54.5t-26.5 147.5z" />
    <glyph glyph-name="r" unicode="r" horiz-adv-x="355" 
d="M30 0l90 510h77l-89 -510h-78zM260 436l12 69q65 23 123 8l-12 -69q-71 12 -123 -8z" />
    <glyph glyph-name="s" unicode="s" horiz-adv-x="521" 
d="M183 -8q-81 6 -119 47t-25 115h78q-14 -85 77 -97zM258 -8l11 65q107 16 107 96q0 47 -70 61l-102 21q-118 24 -118 114q0 75 51.5 119t138.5 50l-12 -65q-45 -5 -72.5 -29t-27.5 -62q0 -48 70 -62l102 -21q119 -26 119 -111q0 -79 -54 -123.5t-143 -52.5zM339 453l12 65
q156 -15 130 -161h-77q15 84 -65 96z" />
    <glyph glyph-name="t" unicode="t" horiz-adv-x="395" 
d="M58 443l12 67h100l30 170l81 23l-34 -193h158l-12 -67h-335zM144 368h78l-33 -188q-14 -81 12 -107t124 -9l-10 -64q-76 -15 -123 -8.5t-66 32t-22 66t8 94.5z" />
    <glyph glyph-name="u" unicode="u" horiz-adv-x="559" 
d="M538 510l-90 -510h-77l89 510h78zM194 510l-59 -338q-10 -58 19.5 -86.5t87.5 -28.5q34 0 64 11l-12 -68q-36 -10 -74 -10q-90 0 -133.5 47.5t-27.5 140.5l58 332h77z" />
    <glyph glyph-name="v" unicode="v" horiz-adv-x="531" 
d="M158 96l-88 414h79l66 -313zM190 0l288 510h82l-288 -510h-82z" />
    <glyph glyph-name="w" unicode="w" horiz-adv-x="788" 
d="M126 110l-56 400h76l38 -281zM157 0l247 510h76l38 -283l-55 -113l-40 279l-194 -393h-72zM492 0l246 510h79l-251 -510h-74z" />
    <glyph glyph-name="x" unicode="x" horiz-adv-x="502" 
d="M-20 0l459 510h92l-458 -510h-93zM173 326l-103 184h86l70 -125zM355 0l-69 124l53 60l103 -184h-87z" />
    <glyph glyph-name="y" unicode="y" horiz-adv-x="531" 
d="M158 96l-88 414h79l66 -313zM76 -200l402 710h82l-402 -710h-82z" />
    <glyph glyph-name="z" unicode="z" horiz-adv-x="486" 
d="M78 443l12 67h263l-67 -67h-208zM0 0l12 67l448 443h36l-12 -67l-448 -443h-36zM143 0l67 67h208l-12 -67h-263z" />
    <glyph glyph-name="braceleft" unicode="{" horiz-adv-x="337" 
d="M76 37l34 197q7 36 -10.5 58t-52.5 22h-32l13 72h32q35 0 60 22.5t31 58.5l35 196q12 67 60.5 108t114.5 41h59l-13 -72h-43q-37 0 -63 -21.5t-33 -58.5l-31 -174q-9 -49 -38 -85.5t-71 -50.5q37 -16 53.5 -51.5t8.5 -83.5l-31 -174q-7 -37 10.5 -59t54.5 -22h45l-12 -72
h-59q-66 0 -100 41t-22 108z" />
    <glyph glyph-name="bar" unicode="|" horiz-adv-x="210" 
d="M6 -135l171 970h70l-171 -970h-70z" />
    <glyph glyph-name="braceright" unicode="}" horiz-adv-x="337" 
d="M303 663l-34 -196q-7 -37 10.5 -59t52.5 -22h32l-13 -72h-32q-35 0 -60 -22t-31 -58l-35 -197q-12 -67 -60 -108t-115 -41h-59l13 72h44q37 0 62.5 22t32.5 59l31 174q9 49 38 85t71 51q-37 15 -53.5 51t-7.5 84l31 174q6 37 -11.5 58.5t-54.5 21.5h-45l13 72h58
q67 0 100.5 -41t21.5 -108z" />
    <glyph glyph-name="asciitilde" unicode="~" horiz-adv-x="512" 
d="M59 327q39 53 68.5 73t59.5 20q39 0 99 -39t84 -39q37 0 89 61l38 -27q-39 -53 -68.5 -73t-60.5 -20q-38 0 -100.5 39t-87.5 39q-20 0 -36.5 -13t-46.5 -48z" />
    <glyph glyph-name="nbspace" unicode="&#xa0;" horiz-adv-x="300" 
 />
    <glyph glyph-name="exclamdown" unicode="&#xa1;" horiz-adv-x="258" 
d="M16 -190l89 505h78l-89 -505h-78zM120 398l20 112h77l-19 -112h-78z" />
    <glyph glyph-name="cent" unicode="&#xa2;" horiz-adv-x="546" 
d="M94 475l7 42q15 84 71.5 133.5t148.5 57.5l20 112h77l-20 -114q83 -9 123.5 -55.5t27.5 -122.5h-78q10 55 -22 85t-99 30q-70 0 -115.5 -31.5t-55.5 -89.5l-8 -47h-77zM81 400h77l-8 -42q-10 -58 23.5 -89.5t102.5 -31.5q67 0 111 30.5t53 85.5h78q-14 -78 -70 -125.5
t-144 -54.5l-20 -113h-77l20 115q-85 9 -126 59.5t-26 133.5z" />
    <glyph glyph-name="sterling" unicode="&#xa3;" horiz-adv-x="628" 
d="M177 453l11 62q17 94 82.5 144.5t167.5 50.5q100 0 151 -48.5t35 -135.5l-6 -36h-83l6 36q10 52 -20 82t-91 30q-65 0 -107 -32.5t-52 -90.5l-11 -62h-83zM-10 0l12 72h108l43 244h-108l11 62h401l-11 -62h-210l-43 -244h357l-12 -72h-548z" />
    <glyph glyph-name="currency" unicode="&#xa4;" horiz-adv-x="637" 
d="M257 94q-70 9 -116 50l-115 -99l-40 47l116 99q-27 48 -27 108q0 124 84 213l-79 97l56 47l79 -97q58 40 132 49l-12 -67q-74 -14 -127.5 -77.5t-53.5 -154.5q0 -57 29.5 -96.5t85.5 -50.5zM332 94l12 68q73 13 127 76t54 155q0 53 -28 94.5t-87 53.5l12 67
q68 -9 114 -49l118 101l40 -47l-119 -101q29 -47 29 -108q0 -126 -86 -214l81 -96l-56 -47l-80 96q-57 -38 -131 -49z" />
    <glyph glyph-name="yen" unicode="&#xa5;" horiz-adv-x="612" 
d="M214 404l-126 296h94l121 -296h-89zM365 404l227 296h98l-230 -296h-95zM225 0l46 267h-189l11 62h461l-11 -62h-189l-47 -267h-82z" />
    <glyph glyph-name="brokenbar" unicode="&#xa6;" horiz-adv-x="210" 
d="M112 469l65 366h70l-65 -366h-70zM6 -135l64 366h70l-64 -366h-70z" />
    <glyph glyph-name="section" unicode="&#xa7;" horiz-adv-x="621" 
d="M194 -208q-203 22 -168 218h82q-22 -128 99 -146zM269 -209l12 72q71 9 111.5 41.5t40.5 89.5q0 32 -22.5 49.5t-71.5 26.5l-127 25q-150 29 -150 130q0 67 37 117q32 -25 64 -37q-13 -28 -13 -56q0 -33 23.5 -51t71.5 -28l127 -25q148 -29 148 -131q0 -95 -68.5 -155.5
t-182.5 -67.5zM343 636q-67 -8 -107 -40t-40 -90q0 -30 21.5 -47.5t72.5 -27.5l126 -25q151 -29 151 -130q0 -66 -37 -117q-24 21 -64 37q12 27 12 55q0 62 -94 79l-127 25q-76 14 -112.5 46t-36.5 86q0 94 67.5 154t180.5 68zM418 636l13 72q100 -8 145 -63.5t27 -154.5
h-83q24 131 -102 146z" />
    <glyph glyph-name="dieresis" unicode="&#xa8;" horiz-adv-x="373" 
d="M117 610l20 113h73l-20 -113h-73zM317 610l20 113h73l-20 -113h-73z" />
    <glyph glyph-name="copyright" unicode="&#xa9;" horiz-adv-x="880" 
d="M387 141q-59 9 -86.5 49t-16.5 103l21 120q10 63 51 101t105 46l-8 -49q-79 -17 -93 -98l-22 -125q-15 -81 58 -99zM462 140l9 49q78 20 93 103h55q-25 -137 -157 -152zM528 512l8 48q60 -9 87.5 -46t16.5 -100h-55q14 79 -57 98zM361 -8q-132 14 -199 93t-67 190
q0 97 32.5 178.5t88 135t125 84.5t146.5 36l-8 -50q-136 -13 -232.5 -115t-96.5 -264q0 -96 55 -161.5t165 -76.5zM436 -9l9 51q63 6 121.5 34t105 74.5t74 116.5t27.5 153q0 101 -57 165t-162 74l9 49q125 -12 196 -89.5t71 -193.5q0 -189 -114 -306t-280 -128z" />
    <glyph glyph-name="ordfeminine" unicode="&#xaa;" horiz-adv-x="360" 
d="M93 503l15 84q10 60 44.5 91.5t87.5 31.5q31 0 57 -13l-9 -50q-18 9 -38 9q-66 0 -79 -66l-17 -93q-5 -30 9.5 -48t47.5 -18q24 0 40 8q-2 -27 6 -48q-28 -14 -66 -14q-51 0 -79.5 35.5t-18.5 90.5zM294 467l43 237h61l-36 -206q-10 -31 -3 -51.5t47 -9.5l-8 -50
q-66 -22 -90 1.5t-14 78.5z" />
    <glyph glyph-name="guillemotleft" unicode="&#xab;" horiz-adv-x="436" 
d="M199 66l-179 160l12 68l235 160l-14 -80l-162 -114l122 -114zM377 66l-179 160l12 68l235 160l-13 -80l-162 -114l121 -114z" />
    <glyph glyph-name="logicalnot" unicode="&#xac;" horiz-adv-x="512" 
d="M57 384h452l-46 -263h-70l34 196h-381z" />
    <glyph glyph-name="uni00AD" unicode="&#xad;" horiz-adv-x="259" 
d="M29 222l11 67h199l-11 -67h-199z" />
    <glyph glyph-name="registered" unicode="&#xae;" horiz-adv-x="366" 
d="M258 459l-20 64h-38l-12 -64h-29l31 176h29l-14 -86h43q36 0 36 38q0 22 -24 22h-7l4 26h8q49 0 49 -40q0 -56 -46 -69l22 -67h-32zM193 395q-56 9 -83 41.5t-27 79.5q0 78 47 128t117 56l-4 -24q-58 -7 -95.5 -48.5t-37.5 -109.5q0 -87 88 -99zM231 395l5 24
q59 7 96 48.5t37 108.5q0 41 -23 67.5t-65 32.5l4 23q51 -6 80.5 -38.5t29.5 -81.5q0 -77 -46 -128t-118 -56z" />
    <glyph glyph-name="macron" unicode="&#xaf;" horiz-adv-x="372" 
d="M119 619l10 57h272l-10 -57h-272z" />
    <glyph glyph-name="degree" unicode="&#xb0;" horiz-adv-x="323" 
d="M180 438q-45 5 -70.5 34t-25.5 74q0 67 42.5 112t100.5 51l-9 -52q-34 -6 -58 -34t-24 -67q0 -55 52 -66zM218 438l8 52q34 6 58 34t24 68q0 24 -13.5 42t-38.5 23l9 52q44 -5 70 -33.5t26 -73.5q0 -68 -43 -113t-100 -51z" />
    <glyph glyph-name="plusminus" unicode="&#xb1;" horiz-adv-x="512" 
d="M253 414l35 198h70l-35 -198h192l-12 -67h-191l-35 -196h-71l35 196h-190l12 67h190zM2 67h452l-12 -67h-452z" />
    <glyph glyph-name="twosuperior" unicode="&#xb2;" horiz-adv-x="387" 
d="M132 575l2 16q7 51 41 80t86 33l-10 -54q-47 -11 -56 -59l-2 -16h-61zM145 424l137 111q44 37 44 76q0 32 -37 40l10 53q42 -4 65.5 -25t23.5 -56q0 -27 -13.5 -53t-28 -41t-37.5 -35l-85 -70h-79zM88 332l10 54h254l-9 -54h-255z" />
    <glyph glyph-name="threesuperior" unicode="&#xb3;" horiz-adv-x="389" 
d="M128 586l3 17q8 42 40 69.5t83 31.5l-10 -54q-46 -7 -54 -54l-2 -10h-60zM215 490l10 53h21q33 0 53.5 17t20.5 48q0 35 -38 42l10 54q46 -3 69.5 -24.5t23.5 -55.5q0 -73 -63 -108q34 -24 34 -66q0 -53 -36.5 -86t-94.5 -36l10 54q59 11 59 67q0 41 -58 41h-21zM103 447
h60l-2 -11q-8 -44 36 -53l-9 -55q-50 6 -73 32.5t-15 68.5z" />
    <glyph glyph-name="acute" unicode="&#xb4;" horiz-adv-x="283" 
d="M183 580h-71l121 160h90z" />
    <glyph glyph-name="uni00B5" unicode="&#xb5;" horiz-adv-x="561" 
d="M-6 -200l126 710h77l-125 -710h-78zM182 -7l12 71q22 -7 51 -7q62 0 106.5 35t55.5 97l56 321h78l-90 -510h-60v58q-74 -82 -209 -65z" />
    <glyph glyph-name="paragraph" unicode="&#xb6;" horiz-adv-x="526" 
d="M274 0h-71l66 374h-46q-143 0 -143 122q0 91 53 147.5t148 56.5h116zM349 0l123 700h72l-123 -700h-72z" />
    <glyph glyph-name="periodcentered" unicode="&#xb7;" horiz-adv-x="228" 
d="M81 289l21 123h88l-22 -123h-87z" />
    <glyph glyph-name="cedilla" unicode="&#xb8;" horiz-adv-x="275" 
d="M-13 -199l-3 50q55 -6 82 1t27 34q0 30 -100 20l21 49q73 10 111.5 -6.5t38.5 -54.5q0 -54 -47.5 -80t-129.5 -13z" />
    <glyph glyph-name="onesuperior" unicode="&#xb9;" horiz-adv-x="261" 
d="M95 568l11 64l63 41l-11 -65zM147 332l65 368h62l-65 -368h-62z" />
    <glyph glyph-name="ordmasculine" unicode="&#xba;" horiz-adv-x="360" 
d="M188 378q-53 5 -79 37.5t-16 87.5l15 84q10 56 46.5 87t91.5 35l-10 -55q-26 -4 -43.5 -20.5t-21.5 -43.5l-17 -93q-9 -55 43 -65zM226 378l9 54q56 10 65 65l17 93q10 56 -43 64l10 55q52 -5 78 -37.5t16 -86.5l-15 -85q-10 -56 -46 -87t-91 -35z" />
    <glyph glyph-name="guillemotright" unicode="&#xbb;" horiz-adv-x="436" 
d="M248 454l179 -160l-12 -68l-235 -160l14 80l161 115l-121 114zM70 454l179 -160l-12 -68l-235 -160l13 80l162 115l-121 114z" />
    <glyph glyph-name="onequarter" unicode="&#xbc;" horiz-adv-x="774" 
d="M111 568l11 64l63 40l-11 -64zM163 332l65 368h62l-65 -368h-62zM68 0l601 700h73l-601 -700h-73zM428 76l9 53l157 239h64l-159 -239h62l-9 -53h-124zM577 0l36 208h59l-14 -79h52l-9 -53h-52l-13 -76h-59z" />
    <glyph glyph-name="onehalf" unicode="&#xbd;" horiz-adv-x="797" 
d="M68 0l601 700h73l-601 -700h-73zM111 568l11 64l63 40l-11 -64zM163 332l65 368h62l-65 -368h-62zM486 243l2 16q7 51 41 80t86 33l-10 -54q-23 -5 -38 -20.5t-18 -38.5l-2 -16h-61zM499 92l137 111q44 37 44 76q0 32 -37 40l10 53q42 -4 65.5 -25t23.5 -56
q0 -27 -13.5 -53t-28 -41t-37.5 -35l-85 -70h-79zM442 0l10 54h254l-9 -54h-255z" />
    <glyph glyph-name="threequarters" unicode="&#xbe;" horiz-adv-x="811" 
d="M105 0l601 700h73l-601 -700h-73zM465 76l9 53l157 239h64l-159 -239h62l-9 -53h-124zM614 0l36 208h59l-14 -79h52l-9 -53h-52l-13 -76h-59zM128 586l3 17q8 42 40 69.5t83 31.5l-10 -54q-46 -7 -54 -54l-2 -10h-60zM215 490l10 53h21q33 0 53.5 17t20.5 48q0 35 -38 42
l10 54q46 -3 69.5 -24.5t23.5 -55.5q0 -73 -63 -108q34 -24 34 -66q0 -53 -36.5 -86t-94.5 -36l10 54q59 11 59 67q0 41 -58 41h-21zM103 447h60l-2 -11q-8 -44 36 -53l-9 -55q-50 6 -73 32.5t-15 68.5z" />
    <glyph glyph-name="questiondown" unicode="&#xbf;" horiz-adv-x="627" 
d="M520 20l-4 -23q-15 -85 -79 -136.5t-161 -59.5l12 68q63 9 102 42.5t48 85.5l4 23h78zM368 315l-33 -189h-39q-83 0 -137 -40.5t-54 -117.5q0 -38 26.5 -64.5t81.5 -34.5l-12 -67q-84 8 -129.5 50.5t-45.5 105.5q0 102 68.5 162.5t174.5 69.5l22 125h77zM402 510
l-20 -112h-77l19 112h78z" />
    <glyph glyph-name="Agrave" unicode="&#xc0;" horiz-adv-x="618" 
d="M-40 0l338 619l22 -117l-272 -502h-88zM231 180l39 72h176l-87 448h84l135 -700h-84l-35 180h-228zM458 740h-63l-88 145h82z" />
    <glyph glyph-name="Aacute" unicode="&#xc1;" horiz-adv-x="618" 
d="M-40 0l338 619l22 -117l-272 -502h-88zM231 180l39 72h176l-87 448h84l135 -700h-84l-35 180h-228zM415 740h-75l110 145h94z" />
    <glyph glyph-name="Acircumflex" unicode="&#xc2;" horiz-adv-x="618" 
d="M-40 0l338 619l22 -117l-272 -502h-88zM231 180l39 72h176l-87 448h84l135 -700h-84l-35 180h-228zM468 885l87 -145h-71l-64 100l-100 -100h-77l139 145h86z" />
    <glyph glyph-name="Atilde" unicode="&#xc3;" horiz-adv-x="618" 
d="M-40 0l338 619l22 -117l-272 -502h-88zM231 180l39 72h176l-87 448h84l135 -700h-84l-35 180h-228zM268 757l-45 26q62 99 121 99q28 0 55.5 -18t49 -35.5t36.5 -17.5q29 0 71 63l45 -26q-61 -99 -120 -99q-28 0 -55.5 17.5t-50 35t-36.5 17.5q-29 0 -71 -62z" />
    <glyph glyph-name="Adieresis" unicode="&#xc4;" horiz-adv-x="618" 
d="M-40 0l338 619l22 -117l-272 -502h-88zM231 180l39 72h176l-87 448h84l135 -700h-84l-35 180h-228zM251 755l20 113h72l-20 -113h-72zM481 755l20 113h72l-20 -113h-72z" />
    <glyph glyph-name="Aring" unicode="&#xc5;" horiz-adv-x="618" 
d="M-40 0l338 619l22 -117l-272 -502h-88zM231 180l39 72h176l-87 448h84l135 -700h-84l-35 180h-228zM524 838q0 -47 -31.5 -80t-78.5 -39l9 52q18 7 29.5 23.5t11.5 36.5q0 28 -24 36l9 52q36 -4 55.5 -25.5t19.5 -55.5zM362 808q0 -27 23 -37l-9 -52q-36 5 -55 26.5
t-19 54.5q0 47 31.5 80t77.5 38l-9 -52q-40 -14 -40 -58z" />
    <glyph glyph-name="AE" unicode="&#xc6;" horiz-adv-x="1018" 
d="M-40 0l566 664l-26 -148l-438 -516h-102zM486 0l32 180h-205l61 72h156l79 448h452l-13 -72h-369l-98 -556h369l-12 -72h-452zM699 315l12 72h244l-12 -72h-244z" />
    <glyph glyph-name="Ccedilla" unicode="&#xc7;" horiz-adv-x="647" 
d="M250 -8q-104 12 -155 78t-32 176l38 213q20 112 91 176.5t185 73.5l-13 -73q-73 -11 -120.5 -56.5t-60.5 -121.5l-38 -218q-14 -75 17.5 -120.5t100.5 -55.5zM325 -9l13 74q69 9 113.5 50t57.5 110h82q-19 -107 -88 -166t-178 -68zM439 636l13 72q100 -11 150 -71.5
t33 -161.5h-82q12 70 -18 111t-96 50zM189 -199l-3 50q55 -6 82 1t27 34q0 30 -100 20l21 49q73 10 111.5 -6.5t38.5 -54.5q0 -54 -47.5 -80t-129.5 -13z" />
    <glyph glyph-name="Egrave" unicode="&#xc8;" horiz-adv-x="562" 
d="M429 740h-63l-88 145h82zM30 0l123 700h452l-13 -72h-369l-98 -556h369l-12 -72h-452zM243 315l12 72h244l-12 -72h-244z" />
    <glyph glyph-name="Eacute" unicode="&#xc9;" horiz-adv-x="562" 
d="M30 0l123 700h452l-13 -72h-369l-98 -556h369l-12 -72h-452zM243 315l12 72h244l-12 -72h-244zM387 740h-75l110 145h94z" />
    <glyph glyph-name="Ecircumflex" unicode="&#xca;" horiz-adv-x="562" 
d="M440 885l87 -145h-71l-64 100l-100 -100h-77l139 145h86zM30 0l123 700h452l-13 -72h-369l-98 -556h369l-12 -72h-452zM243 315l12 72h244l-12 -72h-244z" />
    <glyph glyph-name="Edieresis" unicode="&#xcb;" horiz-adv-x="562" 
d="M30 0l123 700h452l-13 -72h-369l-98 -556h369l-12 -72h-452zM243 315l12 72h244l-12 -72h-244zM222 755l20 113h72l-20 -113h-72zM452 755l20 113h72l-20 -113h-72z" />
    <glyph glyph-name="Igrave" unicode="&#xcc;" horiz-adv-x="223" 
d="M30 0l123 700h83l-123 -700h-83zM241 740h-63l-88 145h82z" />
    <glyph glyph-name="Iacute" unicode="&#xcd;" horiz-adv-x="223" 
d="M30 0l123 700h83l-123 -700h-83zM237 740h-75l110 145h94z" />
    <glyph glyph-name="Icircumflex" unicode="&#xce;" horiz-adv-x="223" 
d="M30 0l123 700h83l-123 -700h-83zM271 885l87 -145h-71l-64 100l-100 -100h-77l139 145h86z" />
    <glyph glyph-name="Idieresis" unicode="&#xcf;" horiz-adv-x="223" 
d="M73 755l20 113h72l-20 -113h-72zM263 755l20 113h72l-20 -113h-72zM30 0l123 700h83l-123 -700h-83z" />
    <glyph glyph-name="Eth" unicode="&#xd0;" horiz-adv-x="657" 
d="M188 0l12 72h92q90 0 147.5 45.5t72.5 129.5l36 206q15 84 -26.5 129.5t-129.5 45.5h-94l13 72h89q127 0 189.5 -64.5t41.5 -182.5l-36 -207q-21 -119 -102 -182.5t-208 -63.5h-97zM17 322l10 57h69l57 321h83l-57 -321h150l-10 -57h-150l-56 -322h-83l56 322h-69z" />
    <glyph glyph-name="Ntilde" unicode="&#xd1;" horiz-adv-x="662" 
d="M290 757l-45 26q62 99 121 99q28 0 55.5 -18t49 -35.5t36.5 -17.5q29 0 71 63l45 -26q-61 -99 -120 -99q-28 0 -55.5 17.5t-50 35t-36.5 17.5q-29 0 -71 -62zM30 0l97 554l59 -134l-73 -420h-83zM462 0l-309 700h90l309 -700h-90zM578 145l-59 135l73 420h83z" />
    <glyph glyph-name="Ograve" unicode="&#xd2;" horiz-adv-x="662" 
d="M480 740h-63l-88 145h82zM252 -8q-108 11 -158 76.5t-31 175.5l38 215q19 112 91 176.5t187 73.5l-13 -73q-74 -11 -122 -56.5t-61 -120.5l-38 -220q-13 -76 18 -121t102 -54zM327 -9l13 74q73 10 120.5 54.5t60.5 119.5l39 220q13 76 -18.5 121.5t-100.5 55.5l13 72
q105 -11 155.5 -77.5t31.5 -176.5l-37 -215q-19 -111 -90.5 -174.5t-186.5 -73.5z" />
    <glyph glyph-name="Oacute" unicode="&#xd3;" horiz-adv-x="662" 
d="M437 740h-75l110 145h94zM252 -8q-108 11 -158 76.5t-31 175.5l38 215q19 112 91 176.5t187 73.5l-13 -73q-74 -11 -122 -56.5t-61 -120.5l-38 -220q-13 -76 18 -121t102 -54zM327 -9l13 74q73 10 120.5 54.5t60.5 119.5l39 220q13 76 -18.5 121.5t-100.5 55.5l13 72
q105 -11 155.5 -77.5t31.5 -176.5l-37 -215q-19 -111 -90.5 -174.5t-186.5 -73.5z" />
    <glyph glyph-name="Ocircumflex" unicode="&#xd4;" horiz-adv-x="662" 
d="M490 885l87 -145h-71l-64 100l-100 -100h-77l139 145h86zM252 -8q-108 11 -158 76.5t-31 175.5l38 215q19 112 91 176.5t187 73.5l-13 -73q-74 -11 -122 -56.5t-61 -120.5l-38 -220q-13 -76 18 -121t102 -54zM327 -9l13 74q73 10 120.5 54.5t60.5 119.5l39 220
q13 76 -18.5 121.5t-100.5 55.5l13 72q105 -11 155.5 -77.5t31.5 -176.5l-37 -215q-19 -111 -90.5 -174.5t-186.5 -73.5z" />
    <glyph glyph-name="Otilde" unicode="&#xd5;" horiz-adv-x="662" 
d="M252 -8q-108 11 -158 76.5t-31 175.5l38 215q19 112 91 176.5t187 73.5l-13 -73q-74 -11 -122 -56.5t-61 -120.5l-38 -220q-13 -76 18 -121t102 -54zM327 -9l13 74q73 10 120.5 54.5t60.5 119.5l39 220q13 76 -18.5 121.5t-100.5 55.5l13 72q105 -11 155.5 -77.5
t31.5 -176.5l-37 -215q-19 -111 -90.5 -174.5t-186.5 -73.5zM290 757l-45 26q62 99 121 99q28 0 55.5 -18t49 -35.5t36.5 -17.5q29 0 71 63l45 -26q-61 -99 -120 -99q-28 0 -55.5 17.5t-50 35t-36.5 17.5q-29 0 -71 -62z" />
    <glyph glyph-name="Odieresis" unicode="&#xd6;" horiz-adv-x="662" 
d="M252 -8q-108 11 -158 76.5t-31 175.5l38 215q19 112 91 176.5t187 73.5l-13 -73q-74 -11 -122 -56.5t-61 -120.5l-38 -220q-13 -76 18 -121t102 -54zM327 -9l13 74q73 10 120.5 54.5t60.5 119.5l39 220q13 76 -18.5 121.5t-100.5 55.5l13 72q105 -11 155.5 -77.5
t31.5 -176.5l-37 -215q-19 -111 -90.5 -174.5t-186.5 -73.5zM273 755l20 113h72l-20 -113h-72zM503 755l20 113h72l-20 -113h-72z" />
    <glyph glyph-name="multiply" unicode="&#xd7;" horiz-adv-x="512" 
d="M285 399l189 161l39 -47l-190 -162l130 -157l-55 -47l-130 157l-188 -159l-39 47l188 160l-129 157l55 47z" />
    <glyph glyph-name="Oslash" unicode="&#xd8;" horiz-adv-x="662" 
d="M216 -2l49 66q20 -2 35 -2q89 0 147.5 46t73.5 131l39 220q11 64 -10 107l-494 -656l-48 31l91 121q-56 69 -36 182l38 215q21 120 102.5 185.5t208.5 65.5q39 0 76 -8l-50 -66q-16 2 -33 2q-89 0 -148 -47t-74 -132l-38 -220q-11 -60 9 -105l493 656l49 -31l-92 -122
q56 -69 37 -183l-37 -215q-21 -120 -102 -184.5t-209 -64.5q-45 0 -77 8z" />
    <glyph glyph-name="Ugrave" unicode="&#xd9;" horiz-adv-x="657" 
d="M477 740h-63l-88 145h82zM248 -8q-100 12 -148.5 75t-30.5 169l82 464h82l-82 -469q-13 -71 16 -114t94 -53zM323 -9l13 74q69 10 113.5 52.5t57.5 113.5l83 469h82l-82 -469q-19 -108 -88 -169.5t-179 -70.5z" />
    <glyph glyph-name="Uacute" unicode="&#xda;" horiz-adv-x="657" 
d="M248 -8q-100 12 -148.5 75t-30.5 169l82 464h82l-82 -469q-13 -71 16 -114t94 -53zM323 -9l13 74q69 10 113.5 52.5t57.5 113.5l83 469h82l-82 -469q-19 -108 -88 -169.5t-179 -70.5zM434 740h-75l110 145h94z" />
    <glyph glyph-name="Ucircumflex" unicode="&#xdb;" horiz-adv-x="657" 
d="M487 885l87 -145h-71l-64 100l-100 -100h-77l139 145h86zM248 -8q-100 12 -148.5 75t-30.5 169l82 464h82l-82 -469q-13 -71 16 -114t94 -53zM323 -9l13 74q69 10 113.5 52.5t57.5 113.5l83 469h82l-82 -469q-19 -108 -88 -169.5t-179 -70.5z" />
    <glyph glyph-name="Udieresis" unicode="&#xdc;" horiz-adv-x="657" 
d="M248 -8q-100 12 -148.5 75t-30.5 169l82 464h82l-82 -469q-13 -71 16 -114t94 -53zM323 -9l13 74q69 10 113.5 52.5t57.5 113.5l83 469h82l-82 -469q-19 -108 -88 -169.5t-179 -70.5zM270 755l20 113h72l-20 -113h-72zM500 755l20 113h72l-20 -113h-72z" />
    <glyph glyph-name="Yacute" unicode="&#xdd;" horiz-adv-x="602" 
d="M231 351l-148 349h94l111 -274zM220 0l48 276l319 424h98l-337 -438l-46 -262h-82zM407 740h-75l110 145h94z" />
    <glyph glyph-name="Thorn" unicode="&#xde;" horiz-adv-x="587" 
d="M30 0l123 700h83l-123 -700h-83zM211 132l12 72h97q76 0 126.5 47.5t50.5 139.5q0 105 -119 105h-104l13 72h106q97 0 143.5 -43t46.5 -120q0 -130 -75 -201.5t-197 -71.5h-100z" />
    <glyph glyph-name="germandbls" unicode="&#xdf;" horiz-adv-x="636" 
d="M-5 -200l132 750q14 84 78 137t163 62l-13 -69q-60 -9 -101 -45.5t-51 -91.5l-130 -743h-78zM590 247q0 -111 -64.5 -184t-170.5 -73q-87 0 -125.5 49t-24.5 133h73q-9 -53 14.5 -84t68.5 -31q65 0 108 51.5t43 128.5q0 56 -39.5 92t-119.5 37h-19l12 67h10
q76 2 128 41.5t52 104.5q0 41 -27 68t-79 34l13 67q83 -10 128 -51t45 -104q0 -65 -37.5 -115t-99.5 -78q111 -39 111 -153z" />
    <glyph glyph-name="agrave" unicode="&#xe0;" horiz-adv-x="597" 
d="M49 192l24 138q16 92 72.5 141t144.5 49q48 0 83 -14l-12 -66q-29 13 -65 13q-60 0 -97 -30.5t-47 -87.5l-26 -148q-10 -58 19 -94t85 -36q39 0 73 15q2 -40 9 -60q-44 -22 -105 -22q-88 0 -131 54.5t-27 147.5zM384 141l66 369h77l-64 -362q-10 -57 5 -76.5t75 -3.5
l-11 -63q-93 -31 -129 3.5t-19 132.5zM377 580h-58l-96 160h77z" />
    <glyph glyph-name="aacute" unicode="&#xe1;" horiz-adv-x="597" 
d="M49 192l24 138q16 92 72.5 141t144.5 49q48 0 83 -14l-12 -66q-29 13 -65 13q-60 0 -97 -30.5t-47 -87.5l-26 -148q-10 -58 19 -94t85 -36q39 0 73 15q2 -40 9 -60q-44 -22 -105 -22q-88 0 -131 54.5t-27 147.5zM384 141l66 369h77l-64 -362q-10 -57 5 -76.5t75 -3.5
l-11 -63q-93 -31 -129 3.5t-19 132.5zM346 580h-71l121 160h90z" />
    <glyph glyph-name="acircumflex" unicode="&#xe2;" horiz-adv-x="597" 
d="M49 192l24 138q16 92 72.5 141t144.5 49q48 0 83 -14l-12 -66q-29 13 -65 13q-60 0 -97 -30.5t-47 -87.5l-26 -148q-10 -58 19 -94t85 -36q39 0 73 15q2 -40 9 -60q-44 -22 -105 -22q-88 0 -131 54.5t-27 147.5zM384 141l66 369h77l-64 -362q-10 -57 5 -76.5t75 -3.5
l-11 -63q-93 -31 -129 3.5t-19 132.5zM392 740l80 -160h-68l-56 106l-94 -106h-74l136 160h76z" />
    <glyph glyph-name="atilde" unicode="&#xe3;" horiz-adv-x="597" 
d="M49 192l24 138q16 92 72.5 141t144.5 49q48 0 83 -14l-12 -66q-29 13 -65 13q-60 0 -97 -30.5t-47 -87.5l-26 -148q-10 -58 19 -94t85 -36q39 0 73 15q2 -40 9 -60q-44 -22 -105 -22q-88 0 -131 54.5t-27 147.5zM384 141l66 369h77l-64 -362q-10 -57 5 -76.5t75 -3.5
l-11 -63q-93 -31 -129 3.5t-19 132.5zM208 612l-45 26q62 99 119 99q22 0 41.5 -11t31 -24.5t24.5 -24.5t24 -11q25 0 69 63l44 -26q-61 -99 -118 -99q-28 0 -51 17.5t-40 35t-31 17.5q-25 0 -68 -62z" />
    <glyph glyph-name="adieresis" unicode="&#xe4;" horiz-adv-x="597" 
d="M49 192l24 138q16 92 72.5 141t144.5 49q48 0 83 -14l-12 -66q-29 13 -65 13q-60 0 -97 -30.5t-47 -87.5l-26 -148q-10 -58 19 -94t85 -36q39 0 73 15q2 -40 9 -60q-44 -22 -105 -22q-88 0 -131 54.5t-27 147.5zM384 141l66 369h77l-64 -362q-10 -57 5 -76.5t75 -3.5
l-11 -63q-93 -31 -129 3.5t-19 132.5zM194 610l20 113h73l-20 -113h-73zM394 610l20 113h73l-20 -113h-73z" />
    <glyph glyph-name="aring" unicode="&#xe5;" horiz-adv-x="597" 
d="M49 192l24 138q16 92 72.5 141t144.5 49q48 0 83 -14l-12 -66q-29 13 -65 13q-60 0 -97 -30.5t-47 -87.5l-26 -148q-10 -58 19 -94t85 -36q39 0 73 15q2 -40 9 -60q-44 -22 -105 -22q-88 0 -131 54.5t-27 147.5zM384 141l66 369h77l-64 -362q-10 -57 5 -76.5t75 -3.5
l-11 -63q-93 -31 -129 3.5t-19 132.5zM450 679q0 -47 -31.5 -80t-78.5 -39l9 52q18 7 29.5 23.5t11.5 36.5q0 28 -24 36l9 52q36 -4 55.5 -25.5t19.5 -55.5zM288 649q0 -27 23 -37l-9 -52q-36 5 -55 26.5t-19 54.5q0 47 31.5 80t77.5 38l-9 -52q-40 -14 -40 -58z" />
    <glyph glyph-name="ae" unicode="&#xe6;" horiz-adv-x="862" 
d="M22 118q0 87 57 133.5t154 46.5q55 0 85 -10l-10 -59q-28 7 -58 7q-63 0 -106 -26.5t-43 -81.5q0 -71 116 -71q52 0 87 16q9 -31 20 -48q-58 -35 -141 -35q-75 0 -118 33.5t-43 94.5zM517 -7q-78 9 -117.5 57.5t-24.5 130.5l29 164q10 55 -17 83t-84 28q-120 0 -138 -99
h-77q28 163 220 163q127 0 155 -83q51 67 147 82l-12 -69q-47 -8 -78.5 -37t-39.5 -78l-7 -40h265l7 40q9 47 -9.5 77t-62.5 38l12 67q77 -10 114.5 -58.5t22.5 -128.5l-17 -97h-343l-10 -57q-8 -48 11.5 -78.5t65.5 -37.5zM592 -9l12 69q44 8 72.5 34t37.5 64h77
q-17 -72 -67.5 -115t-131.5 -52z" />
    <glyph glyph-name="ccedilla" unicode="&#xe7;" horiz-adv-x="526" 
d="M191 -7q-78 9 -117.5 57.5t-24.5 130.5l26 149q15 84 68.5 132.5t140.5 56.5l-12 -69q-101 -17 -118 -115l-28 -159q-17 -99 77 -116zM266 -8l12 69q96 17 113 112h77q-14 -79 -66 -126t-136 -55zM347 450l12 67q76 -9 114 -56t25 -123h-78q8 46 -11 75t-62 37zM130 -199
l-3 50q55 -6 82 1t27 34q0 30 -100 20l21 49q73 10 111.5 -6.5t38.5 -54.5q0 -54 -47.5 -80t-129.5 -13z" />
    <glyph glyph-name="egrave" unicode="&#xe8;" 
d="M191 -7q-78 9 -117.5 57.5t-24.5 130.5l26 149q14 83 68 132t141 57l-12 -69q-48 -8 -79 -37.5t-39 -77.5l-7 -40h265l7 40q9 47 -9.5 77t-62.5 38l12 67q76 -10 114 -58t23 -129l-17 -97h-343l-10 -57q-8 -48 11.5 -78.5t65.5 -37.5zM266 -9l12 69q44 8 72.5 34t37.5 64
h77q-17 -72 -67.5 -115t-131.5 -52zM381 580h-58l-96 160h77z" />
    <glyph glyph-name="eacute" unicode="&#xe9;" 
d="M350 580h-71l121 160h90zM191 -7q-78 9 -117.5 57.5t-24.5 130.5l26 149q14 83 68 132t141 57l-12 -69q-48 -8 -79 -37.5t-39 -77.5l-7 -40h265l7 40q9 47 -9.5 77t-62.5 38l12 67q76 -10 114 -58t23 -129l-17 -97h-343l-10 -57q-8 -48 11.5 -78.5t65.5 -37.5zM266 -9
l12 69q44 8 72.5 34t37.5 64h77q-17 -72 -67.5 -115t-131.5 -52z" />
    <glyph glyph-name="ecircumflex" unicode="&#xea;" 
d="M396 740l80 -160h-68l-56 106l-94 -106h-74l136 160h76zM191 -7q-78 9 -117.5 57.5t-24.5 130.5l26 149q14 83 68 132t141 57l-12 -69q-48 -8 -79 -37.5t-39 -77.5l-7 -40h265l7 40q9 47 -9.5 77t-62.5 38l12 67q76 -10 114 -58t23 -129l-17 -97h-343l-10 -57
q-8 -48 11.5 -78.5t65.5 -37.5zM266 -9l12 69q44 8 72.5 34t37.5 64h77q-17 -72 -67.5 -115t-131.5 -52z" />
    <glyph glyph-name="edieresis" unicode="&#xeb;" 
d="M198 610l20 113h73l-20 -113h-73zM398 610l20 113h73l-20 -113h-73zM191 -7q-78 9 -117.5 57.5t-24.5 130.5l26 149q14 83 68 132t141 57l-12 -69q-48 -8 -79 -37.5t-39 -77.5l-7 -40h265l7 40q9 47 -9.5 77t-62.5 38l12 67q76 -10 114 -58t23 -129l-17 -97h-343l-10 -57
q-8 -48 11.5 -78.5t65.5 -37.5zM266 -9l12 69q44 8 72.5 34t37.5 64h77q-17 -72 -67.5 -115t-131.5 -52z" />
    <glyph glyph-name="igrave" unicode="&#xec;" horiz-adv-x="218" 
d="M30 0l90 510h77l-89 -510h-78zM212 580h-58l-96 160h77z" />
    <glyph glyph-name="iacute" unicode="&#xed;" horiz-adv-x="218" 
d="M201 580h-71l121 160h90zM30 0l90 510h77l-89 -510h-78z" />
    <glyph glyph-name="icircumflex" unicode="&#xee;" horiz-adv-x="218" 
d="M238 740l80 -160h-68l-56 106l-94 -106h-74l136 160h76zM30 0l90 510h77l-89 -510h-78z" />
    <glyph glyph-name="idieresis" unicode="&#xef;" horiz-adv-x="218" 
d="M60 610l20 113h67l-20 -113h-67zM225 610l20 113h67l-20 -113h-67zM30 0l90 510h77l-89 -510h-78z" />
    <glyph glyph-name="eth" unicode="&#xf0;" 
d="M189 -8q-78 11 -116 58.5t-24 130.5l19 109q16 88 69 137t139 53l-14 -70q-97 -18 -115 -115l-21 -119q-18 -100 75 -116zM264 -8l12 69q46 8 76.5 38.5t39.5 79.5l18 102q21 111 -72 129l11 62q43 -10 65 -38q-17 92 -71 156l-136 -57l-16 48l114 47q-45 39 -107 64
l34 58q86 -35 144 -91l127 53l17 -49l-108 -44q57 -73 74.5 -173t-3.5 -195l-13 -67q-17 -85 -70 -135t-136 -57z" />
    <glyph glyph-name="ntilde" unicode="&#xf1;" horiz-adv-x="559" 
d="M30 0l90 510h77l-89 -510h-78zM374 0l59 338q10 57 -19 86t-88 29q-33 0 -65 -11l12 68q39 10 75 10q90 0 133.5 -47.5t27.5 -139.5l-58 -333h-77zM226 612l-45 26q62 99 119 99q22 0 41.5 -11t31 -24.5t24.5 -24.5t24 -11q25 0 69 63l44 -26q-61 -99 -118 -99
q-28 0 -51 17.5t-40 35t-31 17.5q-25 0 -68 -62z" />
    <glyph glyph-name="ograve" unicode="&#xf2;" 
d="M189 -7q-77 9 -115.5 57.5t-24.5 130.5l26 149q15 84 68.5 132t138.5 56l-12 -68q-98 -18 -116 -115l-28 -159q-17 -100 75 -116zM264 -8l12 69q98 19 116 118l27 156q9 49 -10.5 78t-63.5 37l12 67q77 -9 115 -57t24 -130l-26 -146q-15 -85 -68.5 -135t-137.5 -57z
M381 580h-58l-96 160h77z" />
    <glyph glyph-name="oacute" unicode="&#xf3;" 
d="M350 580h-71l121 160h90zM189 -7q-77 9 -115.5 57.5t-24.5 130.5l26 149q15 84 68.5 132t138.5 56l-12 -68q-98 -18 -116 -115l-28 -159q-17 -100 75 -116zM264 -8l12 69q98 19 116 118l27 156q9 49 -10.5 78t-63.5 37l12 67q77 -9 115 -57t24 -130l-26 -146
q-15 -85 -68.5 -135t-137.5 -57z" />
    <glyph glyph-name="ocircumflex" unicode="&#xf4;" 
d="M396 740l80 -160h-68l-56 106l-94 -106h-74l136 160h76zM189 -7q-77 9 -115.5 57.5t-24.5 130.5l26 149q15 84 68.5 132t138.5 56l-12 -68q-98 -18 -116 -115l-28 -159q-17 -100 75 -116zM264 -8l12 69q98 19 116 118l27 156q9 49 -10.5 78t-63.5 37l12 67q77 -9 115 -57
t24 -130l-26 -146q-15 -85 -68.5 -135t-137.5 -57z" />
    <glyph glyph-name="otilde" unicode="&#xf5;" 
d="M189 -7q-77 9 -115.5 57.5t-24.5 130.5l26 149q15 84 68.5 132t138.5 56l-12 -68q-98 -18 -116 -115l-28 -159q-17 -100 75 -116zM264 -8l12 69q98 19 116 118l27 156q9 49 -10.5 78t-63.5 37l12 67q77 -9 115 -57t24 -130l-26 -146q-15 -85 -68.5 -135t-137.5 -57z
M214 612l-45 26q62 99 119 99q22 0 41.5 -11t31 -24.5t24.5 -24.5t24 -11q25 0 69 63l44 -26q-61 -99 -118 -99q-28 0 -51 17.5t-40 35t-31 17.5q-25 0 -68 -62z" />
    <glyph glyph-name="odieresis" unicode="&#xf6;" 
d="M198 610l20 113h73l-20 -113h-73zM398 610l20 113h73l-20 -113h-73zM189 -7q-77 9 -115.5 57.5t-24.5 130.5l26 149q15 84 68.5 132t138.5 56l-12 -68q-98 -18 -116 -115l-28 -159q-17 -100 75 -116zM264 -8l12 69q98 19 116 118l27 156q9 49 -10.5 78t-63.5 37l12 67
q77 -9 115 -57t24 -130l-26 -146q-15 -85 -68.5 -135t-137.5 -57z" />
    <glyph glyph-name="divide" unicode="&#xf7;" horiz-adv-x="512" 
d="M57 384h452l-11 -67h-452zM184 66l22 123h87l-21 -123h-88zM263 513l21 122h88l-22 -122h-87z" />
    <glyph glyph-name="oslash" unicode="&#xf8;" 
d="M18 -44l63 85q-48 51 -32 141l26 147q16 93 79 142t160 49q22 0 34 -2l-49 -65q-58 -2 -97 -32.5t-49 -86.5l-27 -157q-8 -39 5 -69l351 474l46 -28l-64 -86q48 -53 32 -139l-26 -147q-16 -94 -79 -143t-160 -49q-22 0 -33 2l49 65q56 2 95.5 33t49.5 87l27 157
q7 38 -5 66l-350 -472z" />
    <glyph glyph-name="ugrave" unicode="&#xf9;" horiz-adv-x="559" 
d="M391 580h-58l-96 160h77zM538 510l-90 -510h-77l89 510h78zM194 510l-59 -338q-10 -58 19.5 -86.5t87.5 -28.5q34 0 64 11l-12 -68q-36 -10 -74 -10q-90 0 -133.5 47.5t-27.5 140.5l58 332h77z" />
    <glyph glyph-name="uacute" unicode="&#xfa;" horiz-adv-x="559" 
d="M360 580h-71l121 160h90zM538 510l-90 -510h-77l89 510h78zM194 510l-59 -338q-10 -58 19.5 -86.5t87.5 -28.5q34 0 64 11l-12 -68q-36 -10 -74 -10q-90 0 -133.5 47.5t-27.5 140.5l58 332h77z" />
    <glyph glyph-name="ucircumflex" unicode="&#xfb;" horiz-adv-x="559" 
d="M406 740l80 -160h-68l-56 106l-94 -106h-74l136 160h76zM538 510l-90 -510h-77l89 510h78zM194 510l-59 -338q-10 -58 19.5 -86.5t87.5 -28.5q34 0 64 11l-12 -68q-36 -10 -74 -10q-90 0 -133.5 47.5t-27.5 140.5l58 332h77z" />
    <glyph glyph-name="udieresis" unicode="&#xfc;" horiz-adv-x="559" 
d="M208 610l20 113h73l-20 -113h-73zM408 610l20 113h73l-20 -113h-73zM538 510l-90 -510h-77l89 510h78zM194 510l-59 -338q-10 -58 19.5 -86.5t87.5 -28.5q34 0 64 11l-12 -68q-36 -10 -74 -10q-90 0 -133.5 47.5t-27.5 140.5l58 332h77z" />
    <glyph glyph-name="yacute" unicode="&#xfd;" horiz-adv-x="531" 
d="M158 96l-88 414h79l66 -313zM76 -200l402 710h82l-402 -710h-82zM347 580h-71l121 160h90z" />
    <glyph glyph-name="thorn" unicode="&#xfe;" horiz-adv-x="549" 
d="M-6 -200l166 940h78l-166 -940h-78zM185 4l11 65q33 -12 64 -12q60 0 97 31t47 88l26 147q10 58 -19 94t-85 36q-34 0 -65 -12l12 68q35 11 76 11q89 0 131.5 -54t26.5 -147l-24 -138q-16 -93 -72.5 -142t-144.5 -49q-47 0 -81 14z" />
    <glyph glyph-name="ydieresis" unicode="&#xff;" horiz-adv-x="531" 
d="M158 96l-88 414h79l66 -313zM76 -200l402 710h82l-402 -710h-82zM195 610l20 113h73l-20 -113h-73zM395 610l20 113h73l-20 -113h-73z" />
    <glyph glyph-name="Amacron" unicode="&#x100;" horiz-adv-x="618" 
d="M-40 0l338 619l22 -117l-272 -502h-88zM231 180l39 72h176l-87 448h84l135 -700h-84l-35 180h-228zM254 774l10 57h302l-10 -57h-302z" />
    <glyph glyph-name="amacron" unicode="&#x101;" horiz-adv-x="597" 
d="M49 192l24 138q16 92 72.5 141t144.5 49q48 0 83 -14l-12 -66q-29 13 -65 13q-60 0 -97 -30.5t-47 -87.5l-26 -148q-10 -58 19 -94t85 -36q39 0 73 15q2 -40 9 -60q-44 -22 -105 -22q-88 0 -131 54.5t-27 147.5zM384 141l66 369h77l-64 -362q-10 -57 5 -76.5t75 -3.5
l-11 -63q-93 -31 -129 3.5t-19 132.5zM196 619l10 57h272l-10 -57h-272z" />
    <glyph glyph-name="Abreve" unicode="&#x102;" horiz-adv-x="618" 
d="M-40 0l338 619l22 -117l-272 -502h-88zM231 180l39 72h176l-87 448h84l135 -700h-84l-35 180h-228zM284 885h58q-16 -89 68 -89q82 0 98 89h58q-14 -76 -54 -111.5t-108 -35.5q-147 0 -120 147z" />
    <glyph glyph-name="abreve" unicode="&#x103;" horiz-adv-x="597" 
d="M49 192l24 138q16 92 72.5 141t144.5 49q48 0 83 -14l-12 -66q-29 13 -65 13q-60 0 -97 -30.5t-47 -87.5l-26 -148q-10 -58 19 -94t85 -36q39 0 73 15q2 -40 9 -60q-44 -22 -105 -22q-88 0 -131 54.5t-27 147.5zM384 141l66 369h77l-64 -362q-10 -57 5 -76.5t75 -3.5
l-11 -63q-93 -31 -129 3.5t-19 132.5zM223 740h58q-10 -52 4 -74t53 -22q38 0 59 22t31 74h57q-14 -82 -50 -118.5t-103 -36.5q-69 0 -96 37.5t-13 117.5z" />
    <glyph glyph-name="Aogonek" unicode="&#x104;" horiz-adv-x="618" 
d="M231 180l39 72h176l-87 448h84l135 -700h-21q-58 -65 -58 -109q0 -38 46 -38q15 0 38 5l-9 -51q-33 -11 -65 -11q-44 0 -66.5 20t-22.5 50q0 59 75 134h-1l-35 180h-228zM-40 0l338 619l22 -117l-272 -502h-88z" />
    <glyph glyph-name="aogonek" unicode="&#x105;" horiz-adv-x="597" 
d="M384 141l66 369h77l-64 -362q-10 -57 5 -76.5t75 -3.5l-11 -63q-38 -13 -62 -14q-50 -58 -50 -100q0 -38 46 -38q15 0 38 5l-9 -51q-33 -11 -65 -11q-44 0 -66.5 20t-22.5 50q0 61 74 133q-52 28 -31 142zM49 192l24 138q16 92 72.5 141t144.5 49q48 0 83 -14l-12 -66
q-29 13 -65 13q-60 0 -97 -30.5t-47 -87.5l-26 -148q-10 -58 19 -94t85 -36q39 0 73 15q2 -40 9 -60q-44 -22 -105 -22q-88 0 -131 54.5t-27 147.5z" />
    <glyph glyph-name="Cacute" unicode="&#x106;" horiz-adv-x="647" 
d="M250 -8q-104 12 -155 78t-32 176l38 213q20 112 91 176.5t185 73.5l-13 -73q-73 -11 -120.5 -56.5t-60.5 -121.5l-38 -218q-14 -75 17.5 -120.5t100.5 -55.5zM325 -9l13 74q69 9 113.5 50t57.5 110h82q-19 -107 -88 -166t-178 -68zM439 636l13 72q100 -11 150 -71.5
t33 -161.5h-82q12 70 -18 111t-96 50zM436 740h-75l110 145h94z" />
    <glyph glyph-name="cacute" unicode="&#x107;" horiz-adv-x="526" 
d="M353 580h-71l121 160h90zM191 -7q-78 9 -117.5 57.5t-24.5 130.5l26 149q15 84 68.5 132.5t140.5 56.5l-12 -69q-101 -17 -118 -115l-28 -159q-17 -99 77 -116zM266 -8l12 69q96 17 113 112h77q-14 -79 -66 -126t-136 -55zM347 450l12 67q76 -9 114 -56t25 -123h-78
q8 46 -11 75t-62 37z" />
    <glyph glyph-name="Ccircumflex" unicode="&#x108;" horiz-adv-x="647" 
d="M250 -8q-104 12 -155 78t-32 176l38 213q20 112 91 176.5t185 73.5l-13 -73q-73 -11 -120.5 -56.5t-60.5 -121.5l-38 -218q-14 -75 17.5 -120.5t100.5 -55.5zM325 -9l13 74q69 9 113.5 50t57.5 110h82q-19 -107 -88 -166t-178 -68zM439 636l13 72q100 -11 150 -71.5
t33 -161.5h-82q12 70 -18 111t-96 50zM489 885l87 -145h-71l-64 100l-100 -100h-77l139 145h86z" />
    <glyph glyph-name="ccircumflex" unicode="&#x109;" horiz-adv-x="526" 
d="M399 740l80 -160h-68l-56 106l-94 -106h-74l136 160h76zM191 -7q-78 9 -117.5 57.5t-24.5 130.5l26 149q15 84 68.5 132.5t140.5 56.5l-12 -69q-101 -17 -118 -115l-28 -159q-17 -99 77 -116zM266 -8l12 69q96 17 113 112h77q-14 -79 -66 -126t-136 -55zM347 450l12 67
q76 -9 114 -56t25 -123h-78q8 46 -11 75t-62 37z" />
    <glyph glyph-name="Cdotaccent" unicode="&#x10a;" horiz-adv-x="647" 
d="M385 755l20 113h77l-20 -113h-77zM250 -8q-104 12 -155 78t-32 176l38 213q20 112 91 176.5t185 73.5l-13 -73q-73 -11 -120.5 -56.5t-60.5 -121.5l-38 -218q-14 -75 17.5 -120.5t100.5 -55.5zM325 -9l13 74q69 9 113.5 50t57.5 110h82q-19 -107 -88 -166t-178 -68z
M439 636l13 72q100 -11 150 -71.5t33 -161.5h-82q12 70 -18 111t-96 50z" />
    <glyph glyph-name="cdotaccent" unicode="&#x10b;" horiz-adv-x="526" 
d="M191 -7q-78 9 -117.5 57.5t-24.5 130.5l26 149q15 84 68.5 132.5t140.5 56.5l-12 -69q-101 -17 -118 -115l-28 -159q-17 -99 77 -116zM266 -8l12 69q96 17 113 112h77q-14 -79 -66 -126t-136 -55zM347 450l12 67q76 -9 114 -56t25 -123h-78q8 46 -11 75t-62 37zM299 610
l20 113h78l-20 -113h-78z" />
    <glyph glyph-name="Ccaron" unicode="&#x10c;" horiz-adv-x="647" 
d="M250 -8q-104 12 -155 78t-32 176l38 213q20 112 91 176.5t185 73.5l-13 -73q-73 -11 -120.5 -56.5t-60.5 -121.5l-38 -218q-14 -75 17.5 -120.5t100.5 -55.5zM325 -9l13 74q69 9 113.5 50t57.5 110h82q-19 -107 -88 -166t-178 -68zM439 636l13 72q100 -11 150 -71.5
t33 -161.5h-82q12 70 -18 111t-96 50zM377 740l-87 145h71l64 -100l100 100h77l-139 -145h-86z" />
    <glyph glyph-name="ccaron" unicode="&#x10d;" horiz-adv-x="526" 
d="M295 580l-80 160h68l56 -106l94 106h74l-136 -160h-76zM191 -7q-78 9 -117.5 57.5t-24.5 130.5l26 149q15 84 68.5 132.5t140.5 56.5l-12 -69q-101 -17 -118 -115l-28 -159q-17 -99 77 -116zM266 -8l12 69q96 17 113 112h77q-14 -79 -66 -126t-136 -55zM347 450l12 67
q76 -9 114 -56t25 -123h-78q8 46 -11 75t-62 37z" />
    <glyph glyph-name="Dcaron" unicode="&#x10e;" horiz-adv-x="657" 
d="M30 0l123 700h83l-123 -700h-83zM188 0l12 72h92q90 0 147.5 45.5t72.5 129.5l36 206q15 84 -26.5 129.5t-129.5 45.5h-94l13 72h89q127 0 189.5 -64.5t41.5 -182.5l-36 -207q-21 -119 -102 -182.5t-208 -63.5h-97zM343 740l-87 145h71l64 -100l100 100h77l-139 -145h-86
z" />
    <glyph glyph-name="dcaron" unicode="&#x10f;" horiz-adv-x="586" 
d="M590 580l52 200h77l-78 -200h-51zM51 192l24 138q16 92 73 141t144 49q49 0 82 -14l-12 -65q-29 12 -64 12q-123 0 -145 -118l-26 -148q-10 -58 19 -94t86 -36q36 0 65 12l-12 -68q-35 -11 -76 -11q-89 0 -131.5 54.5t-26.5 147.5zM361 0l130 740h78l-130 -740h-78z" />
    <glyph glyph-name="Dcroat" unicode="&#x110;" horiz-adv-x="657" 
d="M188 0l12 72h92q90 0 147.5 45.5t72.5 129.5l36 206q15 84 -26.5 129.5t-129.5 45.5h-94l13 72h89q127 0 189.5 -64.5t41.5 -182.5l-36 -207q-21 -119 -102 -182.5t-208 -63.5h-97zM17 322l10 57h69l57 321h83l-57 -321h150l-10 -57h-150l-56 -322h-83l56 322h-69z" />
    <glyph glyph-name="dcroat" unicode="&#x111;" horiz-adv-x="549" 
d="M332 602l10 57h135l14 81h78l-14 -81h59l-10 -57h-59l-106 -602h-78l106 602h-135zM51 192l24 138q16 92 73 141t144 49q49 0 82 -14l-12 -65q-29 12 -64 12q-123 0 -145 -118l-26 -148q-10 -58 19 -94t86 -36q36 0 65 12l-12 -68q-35 -11 -76 -11q-89 0 -131.5 54.5
t-26.5 147.5z" />
    <glyph glyph-name="Emacron" unicode="&#x112;" horiz-adv-x="562" 
d="M30 0l123 700h452l-13 -72h-369l-98 -556h369l-12 -72h-452zM243 315l12 72h244l-12 -72h-244zM225 774l10 57h302l-10 -57h-302z" />
    <glyph glyph-name="emacron" unicode="&#x113;" 
d="M191 -7q-78 9 -117.5 57.5t-24.5 130.5l26 149q14 83 68 132t141 57l-12 -69q-48 -8 -79 -37.5t-39 -77.5l-7 -40h265l7 40q9 47 -9.5 77t-62.5 38l12 67q76 -10 114 -58t23 -129l-17 -97h-343l-10 -57q-8 -48 11.5 -78.5t65.5 -37.5zM266 -9l12 69q44 8 72.5 34t37.5 64
h77q-17 -72 -67.5 -115t-131.5 -52zM200 619l10 57h272l-10 -57h-272z" />
    <glyph glyph-name="Ebreve" unicode="&#x114;" horiz-adv-x="562" 
d="M30 0l123 700h452l-13 -72h-369l-98 -556h369l-12 -72h-452zM243 315l12 72h244l-12 -72h-244zM256 885h58q-16 -89 68 -89q82 0 98 89h58q-14 -76 -54 -111.5t-108 -35.5q-147 0 -120 147z" />
    <glyph glyph-name="ebreve" unicode="&#x115;" 
d="M191 -7q-78 9 -117.5 57.5t-24.5 130.5l26 149q14 83 68 132t141 57l-12 -69q-48 -8 -79 -37.5t-39 -77.5l-7 -40h265l7 40q9 47 -9.5 77t-62.5 38l12 67q76 -10 114 -58t23 -129l-17 -97h-343l-10 -57q-8 -48 11.5 -78.5t65.5 -37.5zM266 -9l12 69q44 8 72.5 34t37.5 64
h77q-17 -72 -67.5 -115t-131.5 -52zM227 740h58q-10 -52 4 -74t53 -22q38 0 59 22t31 74h57q-14 -82 -50 -118.5t-103 -36.5q-69 0 -96 37.5t-13 117.5z" />
    <glyph glyph-name="Edotaccent" unicode="&#x116;" horiz-adv-x="562" 
d="M335 755l20 113h77l-20 -113h-77zM30 0l123 700h452l-13 -72h-369l-98 -556h369l-12 -72h-452zM243 315l12 72h244l-12 -72h-244z" />
    <glyph glyph-name="edotaccent" unicode="&#x117;" 
d="M191 -7q-78 9 -117.5 57.5t-24.5 130.5l26 149q14 83 68 132t141 57l-12 -69q-48 -8 -79 -37.5t-39 -77.5l-7 -40h265l7 40q9 47 -9.5 77t-62.5 38l12 67q76 -10 114 -58t23 -129l-17 -97h-343l-10 -57q-8 -48 11.5 -78.5t65.5 -37.5zM266 -9l12 69q44 8 72.5 34t37.5 64
h77q-17 -72 -67.5 -115t-131.5 -52zM296 610l20 113h78l-20 -113h-78z" />
    <glyph glyph-name="Eogonek" unicode="&#x118;" horiz-adv-x="562" 
d="M30 0l123 700h452l-13 -72h-369l-98 -556h369l-12 -72h-53q-58 -65 -58 -109q0 -38 46 -38q15 0 38 5l-9 -51q-33 -11 -65 -11q-44 0 -66.5 20t-22.5 50q0 59 75 134h-337zM243 315l12 72h244l-12 -72h-244z" />
    <glyph glyph-name="eogonek" unicode="&#x119;" 
d="M191 -7q-78 9 -117.5 57.5t-24.5 130.5l26 149q14 83 68 132t141 57l-12 -69q-48 -8 -79 -37.5t-39 -77.5l-7 -40h265l7 40q9 47 -9.5 77t-62.5 38l12 67q76 -10 114 -58t23 -129l-17 -97h-343l-10 -57q-8 -48 11.5 -78.5t65.5 -37.5zM266 -9l12 69q44 8 72.5 34t37.5 64
h77q-16 -70 -63 -112q-93 -103 -93 -155q0 -38 47 -38q13 0 38 5l-10 -51q-32 -11 -64 -11q-44 0 -66.5 20t-22.5 50q0 57 72 131q-3 -1 -37 -6z" />
    <glyph glyph-name="Ecaron" unicode="&#x11a;" horiz-adv-x="562" 
d="M30 0l123 700h452l-13 -72h-369l-98 -556h369l-12 -72h-452zM243 315l12 72h244l-12 -72h-244zM328 740l-87 145h71l64 -100l100 100h77l-139 -145h-86z" />
    <glyph glyph-name="ecaron" unicode="&#x11b;" 
d="M292 580l-80 160h68l56 -106l94 106h74l-136 -160h-76zM191 -7q-78 9 -117.5 57.5t-24.5 130.5l26 149q14 83 68 132t141 57l-12 -69q-48 -8 -79 -37.5t-39 -77.5l-7 -40h265l7 40q9 47 -9.5 77t-62.5 38l12 67q76 -10 114 -58t23 -129l-17 -97h-343l-10 -57
q-8 -48 11.5 -78.5t65.5 -37.5zM266 -9l12 69q44 8 72.5 34t37.5 64h77q-17 -72 -67.5 -115t-131.5 -52z" />
    <glyph glyph-name="Gcircumflex" unicode="&#x11c;" horiz-adv-x="654" 
d="M485 885l87 -145h-71l-64 100l-100 -100h-77l139 145h86zM396 10q-51 -20 -119 -20q-118 0 -176.5 67.5t-37.5 188.5l38 213q19 113 91.5 177t184.5 73l-13 -73q-73 -11 -120.5 -56.5t-60.5 -121.5l-38 -218q-15 -85 26 -131.5t128 -46.5q62 0 110 23zM469 0l50 284h-221
l13 72h303l-62 -356h-83zM439 636l13 72q102 -9 152.5 -65.5t32.5 -157.5h-83q12 66 -18 104.5t-97 46.5z" />
    <glyph glyph-name="gcircumflex" unicode="&#x11d;" horiz-adv-x="549" 
d="M401 740l80 -160h-68l-56 106l-94 -106h-74l136 160h76zM188 -210q-97 0 -144 48t-32 134h78q-10 -55 19 -85t90 -30q64 0 106 31.5t52 89.5l94 532h77l-93 -527q-16 -93 -81.5 -143t-165.5 -50zM55 212l20 118q16 92 73 141t144 49q49 0 82 -14l-12 -65q-29 12 -64 12
q-123 0 -145 -118l-22 -128q-10 -58 19 -94t86 -36q36 0 65 12l-12 -68q-35 -11 -76 -11q-89 0 -131.5 54.5t-26.5 147.5z" />
    <glyph glyph-name="Gbreve" unicode="&#x11e;" horiz-adv-x="654" 
d="M396 10q-51 -20 -119 -20q-118 0 -176.5 67.5t-37.5 188.5l38 213q19 113 91.5 177t184.5 73l-13 -73q-73 -11 -120.5 -56.5t-60.5 -121.5l-38 -218q-15 -85 26 -131.5t128 -46.5q62 0 110 23zM469 0l50 284h-221l13 72h303l-62 -356h-83zM439 636l13 72
q102 -9 152.5 -65.5t32.5 -157.5h-83q12 66 -18 104.5t-97 46.5zM301 885h58q-16 -89 68 -89q82 0 98 89h58q-14 -76 -54 -111.5t-108 -35.5q-147 0 -120 147z" />
    <glyph glyph-name="gbreve" unicode="&#x11f;" horiz-adv-x="549" 
d="M188 -210q-97 0 -144 48t-32 134h78q-10 -55 19 -85t90 -30q64 0 106 31.5t52 89.5l94 532h77l-93 -527q-16 -93 -81.5 -143t-165.5 -50zM55 212l20 118q16 92 73 141t144 49q49 0 82 -14l-12 -65q-29 12 -64 12q-123 0 -145 -118l-22 -128q-10 -58 19 -94t86 -36
q36 0 65 12l-12 -68q-35 -11 -76 -11q-89 0 -131.5 54.5t-26.5 147.5zM232 740h58q-10 -52 4 -74t53 -22q38 0 59 22t31 74h57q-14 -82 -50 -118.5t-103 -36.5q-69 0 -96 37.5t-13 117.5z" />
    <glyph glyph-name="Gdotaccent" unicode="&#x120;" horiz-adv-x="654" 
d="M380 755l20 113h77l-20 -113h-77zM396 10q-51 -20 -119 -20q-118 0 -176.5 67.5t-37.5 188.5l38 213q19 113 91.5 177t184.5 73l-13 -73q-73 -11 -120.5 -56.5t-60.5 -121.5l-38 -218q-15 -85 26 -131.5t128 -46.5q62 0 110 23zM469 0l50 284h-221l13 72h303l-62 -356
h-83zM439 636l13 72q102 -9 152.5 -65.5t32.5 -157.5h-83q12 66 -18 104.5t-97 46.5z" />
    <glyph glyph-name="gdotaccent" unicode="&#x121;" horiz-adv-x="549" 
d="M188 -210q-97 0 -144 48t-32 134h78q-10 -55 19 -85t90 -30q64 0 106 31.5t52 89.5l94 532h77l-93 -527q-16 -93 -81.5 -143t-165.5 -50zM55 212l20 118q16 92 73 141t144 49q49 0 82 -14l-12 -65q-29 12 -64 12q-123 0 -145 -118l-22 -128q-10 -58 19 -94t86 -36
q36 0 65 12l-12 -68q-35 -11 -76 -11q-89 0 -131.5 54.5t-26.5 147.5zM301 610l20 113h78l-20 -113h-78z" />
    <glyph glyph-name="Gcommaaccent" unicode="&#x122;" horiz-adv-x="654" 
d="M209 -200l31 140h75l-47 -140h-59zM396 10q-51 -20 -119 -20q-118 0 -176.5 67.5t-37.5 188.5l38 213q19 113 91.5 177t184.5 73l-13 -73q-73 -11 -120.5 -56.5t-60.5 -121.5l-38 -218q-15 -85 26 -131.5t128 -46.5q62 0 110 23zM469 0l50 284h-221l13 72h303l-62 -356
h-83zM439 636l13 72q102 -9 152.5 -65.5t32.5 -157.5h-83q12 66 -18 104.5t-97 46.5z" />
    <glyph glyph-name="gcommaaccent" unicode="&#x123;" horiz-adv-x="549" 
d="M403 740l-31 -140h-75l47 140h59zM188 -210q-97 0 -144 48t-32 134h78q-10 -55 19 -85t90 -30q64 0 106 31.5t52 89.5l94 532h77l-93 -527q-16 -93 -81.5 -143t-165.5 -50zM55 212l20 118q16 92 73 141t144 49q49 0 82 -14l-12 -65q-29 12 -64 12q-123 0 -145 -118
l-22 -128q-10 -58 19 -94t86 -36q36 0 65 12l-12 -68q-35 -11 -76 -11q-89 0 -131.5 54.5t-26.5 147.5z" />
    <glyph glyph-name="Hcircumflex" unicode="&#x124;" horiz-adv-x="662" 
d="M30 0l123 700h83l-56 -313h282l-12 -72h-282l-55 -315h-83zM469 0l123 700h83l-123 -700h-83zM490 885l87 -145h-71l-64 100l-100 -100h-77l139 145h86z" />
    <glyph glyph-name="hcircumflex" unicode="&#x125;" horiz-adv-x="559" 
d="M30 0l130 740h78l-130 -740h-78zM374 0l59 338q10 57 -19 86t-88 29q-33 0 -65 -11l12 68q39 10 75 10q90 0 133.5 -47.5t27.5 -139.5l-58 -333h-77zM278 925l87 -145h-71l-64 100l-100 -100h-77l139 145h86z" />
    <glyph glyph-name="Hbar" unicode="&#x126;" horiz-adv-x="662" 
d="M70 514l10 57h50l23 129h83l-23 -129h356l23 129h83l-23 -129h50l-10 -57h-50l-90 -514h-83l90 514h-357l-22 -127h282l-12 -72h-282l-55 -315h-83l90 514h-50z" />
    <glyph glyph-name="hbar" unicode="&#x127;" horiz-adv-x="559" 
d="M77 602l10 57h59l14 81h78l-14 -81h135l-10 -57h-135l-106 -602h-78l106 602h-59zM374 0l59 338q10 57 -19 86t-88 29q-33 0 -65 -11l12 68q39 10 75 10q90 0 133.5 -47.5t27.5 -139.5l-58 -333h-77z" />
    <glyph glyph-name="Itilde" unicode="&#x128;" horiz-adv-x="223" 
d="M30 0l123 700h83l-123 -700h-83zM83 757l-45 26q62 99 119 99q28 0 51 -18t40 -35.5t30 -17.5q25 0 69 63l44 -26q-61 -99 -118 -99q-28 0 -51 17.5t-40 35t-31 17.5q-25 0 -68 -62z" />
    <glyph glyph-name="itilde" unicode="&#x129;" horiz-adv-x="218" 
d="M30 0l90 510h77l-89 -510h-78zM55 612l-45 26q62 99 119 99q22 0 41.5 -11t31 -24.5t24.5 -24.5t24 -11q25 0 69 63l44 -26q-61 -99 -118 -99q-28 0 -51 17.5t-40 35t-31 17.5q-25 0 -68 -62z" />
    <glyph glyph-name="Imacron" unicode="&#x12a;" horiz-adv-x="223" 
d="M76 774l10 57h262l-10 -57h-262zM30 0l123 700h83l-123 -700h-83z" />
    <glyph glyph-name="imacron" unicode="&#x12b;" horiz-adv-x="218" 
d="M62 619l10 57h232l-10 -57h-232zM30 0l90 510h77l-89 -510h-78z" />
    <glyph glyph-name="Ibreve" unicode="&#x12c;" horiz-adv-x="223" 
d="M30 0l123 700h83l-123 -700h-83zM87 885h58q-16 -89 68 -89q82 0 98 89h58q-14 -76 -54 -111.5t-108 -35.5q-147 0 -120 147z" />
    <glyph glyph-name="ibreve" unicode="&#x12d;" horiz-adv-x="218" 
d="M30 0l90 510h77l-89 -510h-78zM68 740h58q-10 -52 4 -74t53 -22q38 0 59 22t31 74h57q-14 -82 -50 -118.5t-103 -36.5q-69 0 -96 37.5t-13 117.5z" />
    <glyph glyph-name="Iogonek" unicode="&#x12e;" horiz-adv-x="223" 
d="M30 0l123 700h83l-123 -700q-58 -65 -58 -109q0 -38 46 -38q15 0 38 5l-9 -51q-33 -11 -65 -11q-44 0 -66.5 20t-22.5 50q0 59 75 134h-21z" />
    <glyph glyph-name="iogonek" unicode="&#x12f;" horiz-adv-x="218" 
d="M30 0l90 510h77l-89 -510q-58 -65 -58 -109q0 -38 46 -38q15 0 38 5l-9 -51q-33 -11 -65 -11q-44 0 -66.5 20t-22.5 50q0 59 75 134h-16zM137 610l20 113h78l-20 -113h-78z" />
    <glyph glyph-name="Idotaccent" unicode="&#x130;" horiz-adv-x="223" 
d="M30 0l123 700h83l-123 -700h-83zM165 755l20 113h77l-20 -113h-77z" />
    <glyph glyph-name="dotlessi" unicode="&#x131;" horiz-adv-x="218" 
d="M30 0l90 510h77l-89 -510h-78z" />
    <glyph glyph-name="IJ" unicode="&#x132;" horiz-adv-x="804" 
d="M30 0l123 700h83l-123 -700h-83zM408 -8q-97 12 -142.5 72.5t-23.5 163.5h83q-14 -71 11.5 -112.5t84.5 -50.5zM483 -9l13 74q61 9 101.5 48.5t51.5 104.5l85 482h83l-85 -482q-18 -101 -82 -159.5t-167 -67.5z" />
    <glyph glyph-name="ij" unicode="&#x133;" horiz-adv-x="455" 
d="M30 0l90 510h77l-89 -510h-78zM137 610l20 113h78l-20 -113h-78zM374 610l20 113h78l-20 -113h-78zM260 -39l97 549h77l-95 -541q-18 -103 -65.5 -147t-153.5 -20l11 64q61 -13 89 9t40 86z" />
    <glyph glyph-name="Jcircumflex" unicode="&#x134;" horiz-adv-x="582" 
d="M186 -8q-97 12 -142.5 72.5t-23.5 163.5h83q-14 -71 11.5 -112.5t84.5 -50.5zM261 -9l13 74q61 9 101.5 48.5t51.5 104.5l85 482h83l-85 -482q-18 -101 -82 -159.5t-167 -67.5zM631 885l87 -145h-71l-64 100l-100 -100h-77l139 145h86z" />
    <glyph glyph-name="jcircumflex" unicode="&#x135;" horiz-adv-x="238" 
d="M43 -39l97 549h77l-95 -541q-18 -103 -65.5 -147t-153.5 -20l11 64q61 -13 89 9t40 86zM258 740l80 -160h-68l-56 106l-94 -106h-74l136 160h76z" />
    <glyph glyph-name="Kcommaaccent" unicode="&#x136;" horiz-adv-x="578" 
d="M175 -200l31 140h75l-47 -140h-59zM30 0l123 700h83l-123 -700h-83zM246 325l22 125l269 250h109zM445 0l-153 266l66 61l185 -327h-98z" />
    <glyph glyph-name="kcommaaccent" unicode="&#x137;" horiz-adv-x="484" 
d="M124 -200l31 140h75l-47 -140h-59zM30 0l130 740h78l-130 -740h-78zM223 227l21 117l177 166h102zM362 0l-94 166l60 58l127 -224h-93z" />
    <glyph glyph-name="kgreenlandic" unicode="&#x138;" horiz-adv-x="484" 
d="M30 0l90 510h77l-89 -510h-78zM223 227l21 117l177 166h102zM362 0l-94 166l60 58l127 -224h-93z" />
    <glyph glyph-name="Lacute" unicode="&#x139;" horiz-adv-x="542" 
d="M235 740h-75l110 145h94zM30 0l123 700h83l-123 -700h-83zM188 0l12 72h294l-12 -72h-294z" />
    <glyph glyph-name="lacute" unicode="&#x13a;" horiz-adv-x="303" 
d="M234 780h-75l110 145h94zM59 167l101 573h78l-102 -580q-12 -65 13 -86.5t109 -9.5l-10 -64q-131 -24 -169 20t-20 147z" />
    <glyph glyph-name="Lcommaaccent" unicode="&#x13b;" horiz-adv-x="542" 
d="M154 -200l31 140h75l-47 -140h-59zM30 0l123 700h83l-123 -700h-83zM188 0l12 72h294l-12 -72h-294z" />
    <glyph glyph-name="lcommaaccent" unicode="&#x13c;" horiz-adv-x="303" 
d="M42 -200l31 140h75l-47 -140h-59zM59 167l101 573h78l-102 -580q-12 -65 13 -86.5t109 -9.5l-10 -64q-131 -24 -169 20t-20 147z" />
    <glyph glyph-name="Lcaron" unicode="&#x13d;" horiz-adv-x="542" 
d="M284 580l52 200h77l-78 -200h-51zM30 0l123 700h83l-123 -700h-83zM188 0l12 72h294l-12 -72h-294z" />
    <glyph glyph-name="lcaron" unicode="&#x13e;" horiz-adv-x="308" 
d="M259 580l52 200h77l-78 -200h-51zM59 167l101 573h78l-102 -580q-12 -65 13 -86.5t109 -9.5l-10 -64q-131 -24 -169 20t-20 147z" />
    <glyph glyph-name="Ldot" unicode="&#x13f;" horiz-adv-x="542" 
d="M30 0l123 700h83l-123 -700h-83zM188 0l12 72h294l-12 -72h-294zM331 289l21 123h88l-22 -123h-87z" />
    <glyph glyph-name="ldot" unicode="&#x140;" horiz-adv-x="353" 
d="M59 167l101 573h78l-102 -580q-12 -65 13 -86.5t109 -9.5l-10 -64q-131 -24 -169 20t-20 147zM246 289l21 123h88l-22 -123h-87z" />
    <glyph glyph-name="Lslash" unicode="&#x141;" horiz-adv-x="582" 
d="M27 271l13 68l95 30l58 331h83l-54 -303l175 56l-12 -68l-175 -56l-57 -329h-83l53 301zM228 0l12 72h294l-12 -72h-294z" />
    <glyph glyph-name="lslash" unicode="&#x142;" horiz-adv-x="343" 
d="M28 274l12 68l96 37l64 361h78l-58 -328l96 37l-12 -68l-96 -37l-32 -184q-12 -65 13 -86.5t109 -9.5l-10 -64q-131 -24 -169 20t-20 147l25 144z" />
    <glyph glyph-name="Nacute" unicode="&#x143;" horiz-adv-x="662" 
d="M437 740h-75l110 145h94zM30 0l97 554l59 -134l-73 -420h-83zM462 0l-309 700h90l309 -700h-90zM578 145l-59 135l73 420h83z" />
    <glyph glyph-name="nacute" unicode="&#x144;" horiz-adv-x="559" 
d="M362 580h-71l121 160h90zM30 0l90 510h77l-89 -510h-78zM374 0l59 338q10 57 -19 86t-88 29q-33 0 -65 -11l12 68q39 10 75 10q90 0 133.5 -47.5t27.5 -139.5l-58 -333h-77z" />
    <glyph glyph-name="Ncommaaccent" unicode="&#x145;" horiz-adv-x="662" 
d="M214 -200l31 140h75l-47 -140h-59zM30 0l97 554l59 -134l-73 -420h-83zM462 0l-309 700h90l309 -700h-90zM578 145l-59 135l73 420h83z" />
    <glyph glyph-name="ncommaaccent" unicode="&#x146;" horiz-adv-x="559" 
d="M163 -200l31 140h75l-47 -140h-59zM30 0l90 510h77l-89 -510h-78zM374 0l59 338q10 57 -19 86t-88 29q-33 0 -65 -11l12 68q39 10 75 10q90 0 133.5 -47.5t27.5 -139.5l-58 -333h-77z" />
    <glyph glyph-name="Ncaron" unicode="&#x147;" horiz-adv-x="662" 
d="M30 0l97 554l59 -134l-73 -420h-83zM462 0l-309 700h90l309 -700h-90zM578 145l-59 135l73 420h83zM378 740l-87 145h71l64 -100l100 100h77l-139 -145h-86z" />
    <glyph glyph-name="ncaron" unicode="&#x148;" horiz-adv-x="559" 
d="M304 580l-80 160h68l56 -106l94 106h74l-136 -160h-76zM30 0l90 510h77l-89 -510h-78zM374 0l59 338q10 57 -19 86t-88 29q-33 0 -65 -11l12 68q39 10 75 10q90 0 133.5 -47.5t27.5 -139.5l-58 -333h-77z" />
    <glyph glyph-name="napostrophe" unicode="&#x149;" horiz-adv-x="559" 
d="M134 600l31 140h75l-47 -140h-59zM30 0l90 510h77l-89 -510h-78zM374 0l59 338q10 57 -19 86t-88 29q-33 0 -65 -11l12 68q39 10 75 10q90 0 133.5 -47.5t27.5 -139.5l-58 -333h-77z" />
    <glyph glyph-name="Eng" unicode="&#x14a;" horiz-adv-x="662" 
d="M30 0l97 554l59 -134l-73 -420h-83zM328 -198l11 64q55 -13 79.5 9t36.5 86l7 39l-309 700h90l309 -700l-6 -31q-18 -103 -65.5 -147t-152.5 -20zM578 145l-59 135l73 420h83z" />
    <glyph glyph-name="eng" unicode="&#x14b;" horiz-adv-x="559" 
d="M30 0l90 510h77l-89 -510h-78zM227 -198l11 64q62 -13 89.5 9t39.5 86l66 377q10 57 -19 86t-88 29q-33 0 -65 -11l12 68q39 10 75 10q90 0 133.5 -47.5t27.5 -139.5l-63 -364q-19 -103 -66.5 -147t-152.5 -20z" />
    <glyph glyph-name="Omacron" unicode="&#x14c;" horiz-adv-x="662" 
d="M252 -8q-108 11 -158 76.5t-31 175.5l38 215q19 112 91 176.5t187 73.5l-13 -73q-74 -11 -122 -56.5t-61 -120.5l-38 -220q-13 -76 18 -121t102 -54zM327 -9l13 74q73 10 120.5 54.5t60.5 119.5l39 220q13 76 -18.5 121.5t-100.5 55.5l13 72q105 -11 155.5 -77.5
t31.5 -176.5l-37 -215q-19 -111 -90.5 -174.5t-186.5 -73.5zM276 774l10 57h302l-10 -57h-302z" />
    <glyph glyph-name="omacron" unicode="&#x14d;" 
d="M200 619l10 57h272l-10 -57h-272zM189 -7q-77 9 -115.5 57.5t-24.5 130.5l26 149q15 84 68.5 132t138.5 56l-12 -68q-98 -18 -116 -115l-28 -159q-17 -100 75 -116zM264 -8l12 69q98 19 116 118l27 156q9 49 -10.5 78t-63.5 37l12 67q77 -9 115 -57t24 -130l-26 -146
q-15 -85 -68.5 -135t-137.5 -57z" />
    <glyph glyph-name="Obreve" unicode="&#x14e;" horiz-adv-x="662" 
d="M252 -8q-108 11 -158 76.5t-31 175.5l38 215q19 112 91 176.5t187 73.5l-13 -73q-74 -11 -122 -56.5t-61 -120.5l-38 -220q-13 -76 18 -121t102 -54zM327 -9l13 74q73 10 120.5 54.5t60.5 119.5l39 220q13 76 -18.5 121.5t-100.5 55.5l13 72q105 -11 155.5 -77.5
t31.5 -176.5l-37 -215q-19 -111 -90.5 -174.5t-186.5 -73.5zM306 885h58q-16 -89 68 -89q82 0 98 89h58q-14 -76 -54 -111.5t-108 -35.5q-147 0 -120 147z" />
    <glyph glyph-name="obreve" unicode="&#x14f;" 
d="M189 -7q-77 9 -115.5 57.5t-24.5 130.5l26 149q15 84 68.5 132t138.5 56l-12 -68q-98 -18 -116 -115l-28 -159q-17 -100 75 -116zM264 -8l12 69q98 19 116 118l27 156q9 49 -10.5 78t-63.5 37l12 67q77 -9 115 -57t24 -130l-26 -146q-15 -85 -68.5 -135t-137.5 -57z
M227 740h58q-10 -52 4 -74t53 -22q38 0 59 22t31 74h57q-14 -82 -50 -118.5t-103 -36.5q-69 0 -96 37.5t-13 117.5z" />
    <glyph glyph-name="Ohungarumlaut" unicode="&#x150;" horiz-adv-x="662" 
d="M332 740h-73l119 145h92zM531 740h-73l119 145h92zM252 -8q-108 11 -158 76.5t-31 175.5l38 215q19 112 91 176.5t187 73.5l-13 -73q-74 -11 -122 -56.5t-61 -120.5l-38 -220q-13 -76 18 -121t102 -54zM327 -9l13 74q73 10 120.5 54.5t60.5 119.5l39 220
q13 76 -18.5 121.5t-100.5 55.5l13 72q105 -11 155.5 -77.5t31.5 -176.5l-37 -215q-19 -111 -90.5 -174.5t-186.5 -73.5z" />
    <glyph glyph-name="ohungarumlaut" unicode="&#x151;" 
d="M269 580h-66l114 160h84zM432 580h-66l114 160h84zM189 -7q-77 9 -115.5 57.5t-24.5 130.5l26 149q15 84 68.5 132t138.5 56l-12 -68q-98 -18 -116 -115l-28 -159q-17 -100 75 -116zM264 -8l12 69q98 19 116 118l27 156q9 49 -10.5 78t-63.5 37l12 67q77 -9 115 -57
t24 -130l-26 -146q-15 -85 -68.5 -135t-137.5 -57z" />
    <glyph glyph-name="OE" unicode="&#x152;" horiz-adv-x="1021" 
d="M63 244l38 215q19 110 89 174.5t179 75.5l-13 -75q-70 -12 -115 -57.5t-58 -117.5l-38 -220q-13 -74 16 -118t95 -55l-14 -73q-100 12 -149 77t-30 174zM479 0l10 58q-69 -59 -172 -67l13 73q76 7 127 52.5t64 122.5l39 220q14 79 -20.5 125t-108.5 53l13 71
q100 -12 146 -74l12 66h452l-13 -72h-369l-98 -556h369l-12 -72h-452zM692 315l12 72h244l-12 -72h-244z" />
    <glyph glyph-name="oe" unicode="&#x153;" horiz-adv-x="880" 
d="M189 -7q-77 9 -115.5 57.5t-24.5 130.5l26 149q15 84 68.5 132t138.5 56l-12 -68q-98 -18 -116 -115l-28 -159q-17 -100 75 -116zM534 -7q-90 15 -122 75q-55 -66 -148 -76l12 69q98 19 116 118l27 156q18 99 -74 115l12 67q85 -11 119 -74q55 66 151 76l-12 -69
q-48 -8 -79 -37.5t-39 -77.5l-7 -40h265l7 40q9 47 -9.5 77t-62.5 38l12 67q77 -10 114.5 -58.5t22.5 -128.5l-17 -97h-343l-10 -57q-8 -48 11.5 -78.5t65.5 -37.5zM609 -9l12 69q44 8 72.5 34t37.5 64h77q-17 -72 -67.5 -115t-131.5 -52z" />
    <glyph glyph-name="Racute" unicode="&#x154;" horiz-adv-x="622" 
d="M382 740h-75l110 145h94zM450 0l-86 265h-15h-115l13 72h111q76 0 126 47t50 140q0 104 -118 104h-118l13 72h119q97 0 144 -43t47 -120q0 -102 -46.5 -167.5t-128.5 -90.5l91 -279h-87zM30 0l123 700h83l-123 -700h-83z" />
    <glyph glyph-name="racute" unicode="&#x155;" horiz-adv-x="355" 
d="M257 580h-71l121 160h90zM30 0l90 510h77l-89 -510h-78zM260 436l12 69q65 23 123 8l-12 -69q-71 12 -123 -8z" />
    <glyph glyph-name="Rcommaaccent" unicode="&#x156;" horiz-adv-x="622" 
d="M194 -200l31 140h75l-47 -140h-59zM450 0l-86 265h-15h-115l13 72h111q76 0 126 47t50 140q0 104 -118 104h-118l13 72h119q97 0 144 -43t47 -120q0 -102 -46.5 -167.5t-128.5 -90.5l91 -279h-87zM30 0l123 700h83l-123 -700h-83z" />
    <glyph glyph-name="rcommaaccent" unicode="&#x157;" horiz-adv-x="355" 
d="M-10 -200l31 140h75l-47 -140h-59zM30 0l90 510h77l-89 -510h-78zM260 436l12 69q65 23 123 8l-12 -69q-71 12 -123 -8z" />
    <glyph glyph-name="Rcaron" unicode="&#x158;" horiz-adv-x="622" 
d="M333 740l-87 145h71l64 -100l100 100h77l-139 -145h-86zM450 0l-86 265h-15h-115l13 72h111q76 0 126 47t50 140q0 104 -118 104h-118l13 72h119q97 0 144 -43t47 -120q0 -102 -46.5 -167.5t-128.5 -90.5l91 -279h-87zM30 0l123 700h83l-123 -700h-83z" />
    <glyph glyph-name="rcaron" unicode="&#x159;" horiz-adv-x="355" 
d="M200 580l-80 160h68l56 -106l94 106h74l-136 -160h-76zM30 0l90 510h77l-89 -510h-78zM260 436l12 69q65 23 123 8l-12 -69q-71 12 -123 -8z" />
    <glyph glyph-name="Sacute" unicode="&#x15a;" horiz-adv-x="627" 
d="M235 -8q-101 8 -148.5 63t-29.5 155h82q-23 -130 109 -146zM310 -9l13 73q70 8 111.5 45t41.5 105q0 70 -90 88l-128 25q-146 29 -146 150q0 96 65 160t184 72l-12 -73q-67 -6 -108 -42t-41 -100q0 -73 90 -91l127 -25q147 -28 147 -146q0 -103 -67 -168t-187 -73z
M424 636l12 72q207 -19 172 -218h-82q22 129 -102 146zM419 740h-75l110 145h94z" />
    <glyph glyph-name="sacute" unicode="&#x15b;" horiz-adv-x="521" 
d="M342 580h-71l121 160h90zM183 -8q-81 6 -119 47t-25 115h78q-14 -85 77 -97zM258 -8l11 65q107 16 107 96q0 47 -70 61l-102 21q-118 24 -118 114q0 75 51.5 119t138.5 50l-12 -65q-45 -5 -72.5 -29t-27.5 -62q0 -48 70 -62l102 -21q119 -26 119 -111q0 -79 -54 -123.5
t-143 -52.5zM339 453l12 65q156 -15 130 -161h-77q15 84 -65 96z" />
    <glyph glyph-name="Scircumflex" unicode="&#x15c;" horiz-adv-x="627" 
d="M235 -8q-101 8 -148.5 63t-29.5 155h82q-23 -130 109 -146zM310 -9l13 73q70 8 111.5 45t41.5 105q0 70 -90 88l-128 25q-146 29 -146 150q0 96 65 160t184 72l-12 -73q-67 -6 -108 -42t-41 -100q0 -73 90 -91l127 -25q147 -28 147 -146q0 -103 -67 -168t-187 -73z
M424 636l12 72q207 -19 172 -218h-82q22 129 -102 146zM472 885l87 -145h-71l-64 100l-100 -100h-77l139 145h86z" />
    <glyph glyph-name="scircumflex" unicode="&#x15d;" horiz-adv-x="521" 
d="M388 740l80 -160h-68l-56 106l-94 -106h-74l136 160h76zM183 -8q-81 6 -119 47t-25 115h78q-14 -85 77 -97zM258 -8l11 65q107 16 107 96q0 47 -70 61l-102 21q-118 24 -118 114q0 75 51.5 119t138.5 50l-12 -65q-45 -5 -72.5 -29t-27.5 -62q0 -48 70 -62l102 -21
q119 -26 119 -111q0 -79 -54 -123.5t-143 -52.5zM339 453l12 65q156 -15 130 -161h-77q15 84 -65 96z" />
    <glyph glyph-name="Scedilla" unicode="&#x15e;" horiz-adv-x="627" 
d="M235 -8q-101 8 -148.5 63t-29.5 155h82q-23 -130 109 -146zM310 -9l13 73q70 8 111.5 45t41.5 105q0 70 -90 88l-128 25q-146 29 -146 150q0 96 65 160t184 72l-12 -73q-67 -6 -108 -42t-41 -100q0 -73 90 -91l127 -25q147 -28 147 -146q0 -103 -67 -168t-187 -73z
M424 636l12 72q207 -19 172 -218h-82q22 129 -102 146zM168 -199l-3 50q55 -6 82 1t27 34q0 30 -100 20l21 49q73 10 111.5 -6.5t38.5 -54.5q0 -54 -47.5 -80t-129.5 -13z" />
    <glyph glyph-name="scedilla" unicode="&#x15f;" horiz-adv-x="521" 
d="M183 -8q-81 6 -119 47t-25 115h78q-14 -85 77 -97zM258 -8l11 65q107 16 107 96q0 47 -70 61l-102 21q-118 24 -118 114q0 75 51.5 119t138.5 50l-12 -65q-45 -5 -72.5 -29t-27.5 -62q0 -48 70 -62l102 -21q119 -26 119 -111q0 -79 -54 -123.5t-143 -52.5zM339 453l12 65
q156 -15 130 -161h-77q15 84 -65 96zM116 -199l-3 50q55 -6 82 1t27 34q0 30 -100 20l21 49q73 10 111.5 -6.5t38.5 -54.5q0 -54 -47.5 -80t-129.5 -13z" />
    <glyph glyph-name="Scaron" unicode="&#x160;" horiz-adv-x="627" 
d="M235 -8q-101 8 -148.5 63t-29.5 155h82q-23 -130 109 -146zM310 -9l13 73q70 8 111.5 45t41.5 105q0 70 -90 88l-128 25q-146 29 -146 150q0 96 65 160t184 72l-12 -73q-67 -6 -108 -42t-41 -100q0 -73 90 -91l127 -25q147 -28 147 -146q0 -103 -67 -168t-187 -73z
M424 636l12 72q207 -19 172 -218h-82q22 129 -102 146zM360 740l-87 145h71l64 -100l100 100h77l-139 -145h-86z" />
    <glyph glyph-name="scaron" unicode="&#x161;" horiz-adv-x="521" 
d="M284 580l-80 160h68l56 -106l94 106h74l-136 -160h-76zM183 -8q-81 6 -119 47t-25 115h78q-14 -85 77 -97zM258 -8l11 65q107 16 107 96q0 47 -70 61l-102 21q-118 24 -118 114q0 75 51.5 119t138.5 50l-12 -65q-45 -5 -72.5 -29t-27.5 -62q0 -48 70 -62l102 -21
q119 -26 119 -111q0 -79 -54 -123.5t-143 -52.5zM339 453l12 65q156 -15 130 -161h-77q15 84 -65 96z" />
    <glyph glyph-name="uni0162" unicode="&#x162;" horiz-adv-x="565" 
d="M201 0l97 553h83l-97 -553h-83zM80 628l13 72h545l-13 -72h-545zM135 -199l-3 50q55 -6 82 1t27 34q0 30 -100 20l21 49q73 10 111.5 -6.5t38.5 -54.5q0 -54 -47.5 -80t-129.5 -13z" />
    <glyph glyph-name="uni0163" unicode="&#x163;" horiz-adv-x="395" 
d="M58 443l12 67h100l30 170l81 23l-34 -193h158l-12 -67h-335zM144 368h78l-33 -188q-14 -81 12 -107t124 -9l-10 -64q-76 -15 -123 -8.5t-66 32t-22 66t8 94.5zM91 -199l-3 50q55 -6 82 1t27 34q0 30 -100 20l21 49q73 10 111.5 -6.5t38.5 -54.5q0 -54 -47.5 -80
t-129.5 -13z" />
    <glyph glyph-name="Tcaron" unicode="&#x164;" horiz-adv-x="565" 
d="M201 0l97 553h83l-97 -553h-83zM80 628l13 72h545l-13 -72h-545zM329 740l-87 145h71l64 -100l100 100h77l-139 -145h-86z" />
    <glyph glyph-name="tcaron" unicode="&#x165;" horiz-adv-x="395" 
d="M309 580l52 200h77l-78 -200h-51zM58 443l12 67h100l30 170l81 23l-34 -193h158l-12 -67h-335zM144 368h78l-33 -188q-14 -81 12 -107t124 -9l-10 -64q-76 -15 -123 -8.5t-66 32t-22 66t8 94.5z" />
    <glyph glyph-name="Tbar" unicode="&#x166;" horiz-adv-x="565" 
d="M160 312l10 57h95l33 184h83l-33 -184h94l-10 -57h-94l-54 -312h-83l54 312h-95zM80 628l13 72h545l-13 -72h-545z" />
    <glyph glyph-name="tbar" unicode="&#x167;" horiz-adv-x="395" 
d="M145 368h77l-11 -60h113l-10 -57h-113l-12 -71q-14 -81 12 -107t124 -9l-10 -64q-76 -15 -123 -8.5t-66 32t-22 66t8 94.5l12 67h-82l10 57h82zM58 443l12 67h100l30 170l81 23l-34 -193h158l-12 -67h-335z" />
    <glyph glyph-name="Utilde" unicode="&#x168;" horiz-adv-x="657" 
d="M248 -8q-100 12 -148.5 75t-30.5 169l82 464h82l-82 -469q-13 -71 16 -114t94 -53zM323 -9l13 74q69 10 113.5 52.5t57.5 113.5l83 469h82l-82 -469q-19 -108 -88 -169.5t-179 -70.5zM290 757l-45 26q62 99 121 99q28 0 55.5 -18t49 -35.5t36.5 -17.5q29 0 71 63l45 -26
q-61 -99 -120 -99q-28 0 -55.5 17.5t-50 35t-36.5 17.5q-29 0 -71 -62z" />
    <glyph glyph-name="utilde" unicode="&#x169;" horiz-adv-x="559" 
d="M223 612l-45 26q62 99 119 99q22 0 41.5 -11t31 -24.5t24.5 -24.5t24 -11q25 0 69 63l44 -26q-61 -99 -118 -99q-28 0 -51 17.5t-40 35t-31 17.5q-25 0 -68 -62zM538 510l-90 -510h-77l89 510h78zM194 510l-59 -338q-10 -58 19.5 -86.5t87.5 -28.5q34 0 64 11l-12 -68
q-36 -10 -74 -10q-90 0 -133.5 47.5t-27.5 140.5l58 332h77z" />
    <glyph glyph-name="Umacron" unicode="&#x16a;" horiz-adv-x="657" 
d="M248 -8q-100 12 -148.5 75t-30.5 169l82 464h82l-82 -469q-13 -71 16 -114t94 -53zM323 -9l13 74q69 10 113.5 52.5t57.5 113.5l83 469h82l-82 -469q-19 -108 -88 -169.5t-179 -70.5zM273 774l10 57h302l-10 -57h-302z" />
    <glyph glyph-name="umacron" unicode="&#x16b;" horiz-adv-x="559" 
d="M210 619l10 57h272l-10 -57h-272zM538 510l-90 -510h-77l89 510h78zM194 510l-59 -338q-10 -58 19.5 -86.5t87.5 -28.5q34 0 64 11l-12 -68q-36 -10 -74 -10q-90 0 -133.5 47.5t-27.5 140.5l58 332h77z" />
    <glyph glyph-name="Ubreve" unicode="&#x16c;" horiz-adv-x="657" 
d="M248 -8q-100 12 -148.5 75t-30.5 169l82 464h82l-82 -469q-13 -71 16 -114t94 -53zM323 -9l13 74q69 10 113.5 52.5t57.5 113.5l83 469h82l-82 -469q-19 -108 -88 -169.5t-179 -70.5zM303 885h58q-16 -89 68 -89q82 0 98 89h58q-14 -76 -54 -111.5t-108 -35.5
q-147 0 -120 147z" />
    <glyph glyph-name="ubreve" unicode="&#x16d;" horiz-adv-x="559" 
d="M237 740h58q-10 -52 4 -74t53 -22q38 0 59 22t31 74h57q-14 -82 -50 -118.5t-103 -36.5q-69 0 -96 37.5t-13 117.5zM538 510l-90 -510h-77l89 510h78zM194 510l-59 -338q-10 -58 19.5 -86.5t87.5 -28.5q34 0 64 11l-12 -68q-36 -10 -74 -10q-90 0 -133.5 47.5
t-27.5 140.5l58 332h77z" />
    <glyph glyph-name="Uring" unicode="&#x16e;" horiz-adv-x="657" 
d="M543 838q0 -47 -31.5 -80t-78.5 -39l9 52q18 7 29.5 23.5t11.5 36.5q0 28 -24 36l9 52q36 -4 55.5 -25.5t19.5 -55.5zM381 808q0 -27 23 -37l-9 -52q-36 5 -55 26.5t-19 54.5q0 47 31.5 80t77.5 38l-9 -52q-40 -14 -40 -58zM248 -8q-100 12 -148.5 75t-30.5 169l82 464
h82l-82 -469q-13 -71 16 -114t94 -53zM323 -9l13 74q69 10 113.5 52.5t57.5 113.5l83 469h82l-82 -469q-19 -108 -88 -169.5t-179 -70.5z" />
    <glyph glyph-name="uring" unicode="&#x16f;" horiz-adv-x="559" 
d="M464 679q0 -47 -31.5 -80t-78.5 -39l9 52q18 7 29.5 23.5t11.5 36.5q0 28 -24 36l9 52q36 -4 55.5 -25.5t19.5 -55.5zM302 649q0 -27 23 -37l-9 -52q-36 5 -55 26.5t-19 54.5q0 47 31.5 80t77.5 38l-9 -52q-40 -14 -40 -58zM538 510l-90 -510h-77l89 510h78zM194 510
l-59 -338q-10 -58 19.5 -86.5t87.5 -28.5q34 0 64 11l-12 -68q-36 -10 -74 -10q-90 0 -133.5 47.5t-27.5 140.5l58 332h77z" />
    <glyph glyph-name="Uhungarumlaut" unicode="&#x170;" horiz-adv-x="657" 
d="M329 740h-73l119 145h92zM528 740h-73l119 145h92zM248 -8q-100 12 -148.5 75t-30.5 169l82 464h82l-82 -469q-13 -71 16 -114t94 -53zM323 -9l13 74q69 10 113.5 52.5t57.5 113.5l83 469h82l-82 -469q-19 -108 -88 -169.5t-179 -70.5z" />
    <glyph glyph-name="uhungarumlaut" unicode="&#x171;" horiz-adv-x="559" 
d="M279 580h-66l114 160h84zM442 580h-66l114 160h84zM538 510l-90 -510h-77l89 510h78zM194 510l-59 -338q-10 -58 19.5 -86.5t87.5 -28.5q34 0 64 11l-12 -68q-36 -10 -74 -10q-90 0 -133.5 47.5t-27.5 140.5l58 332h77z" />
    <glyph glyph-name="Uogonek" unicode="&#x172;" horiz-adv-x="657" 
d="M247 -134q0 62 78 137l11 62q69 10 113.5 52.5t57.5 113.5l83 469h82l-82 -469q-16 -92 -68.5 -150.5t-136.5 -79.5q-59 -64 -59 -110q0 -38 46 -38q15 0 38 5l-9 -51q-33 -11 -65 -11q-44 0 -66.5 20t-22.5 50zM248 -8q-100 12 -148.5 75t-30.5 169l82 464h82l-82 -469
q-13 -71 16 -114t94 -53z" />
    <glyph glyph-name="uogonek" unicode="&#x173;" horiz-adv-x="559" 
d="M538 510l-90 -510q-58 -63 -58 -109q0 -38 46 -38q15 0 38 5l-9 -51q-33 -11 -65 -11q-44 0 -66.5 20t-22.5 50q0 59 75 134h-15l89 510h78zM194 510l-59 -338q-10 -58 19.5 -86.5t87.5 -28.5q34 0 64 11l-12 -68q-36 -10 -74 -10q-90 0 -133.5 47.5t-27.5 140.5l58 332
h77z" />
    <glyph glyph-name="Wcircumflex" unicode="&#x174;" horiz-adv-x="860" 
d="M589 885l87 -145h-71l-64 100l-100 -100h-77l139 145h86zM134 127l-53 573h81l37 -428zM160 0l311 700h80l38 -425l-63 -139l-40 414l-246 -550h-80zM549 0l311 700h85l-311 -700h-85z" />
    <glyph glyph-name="wcircumflex" unicode="&#x175;" horiz-adv-x="788" 
d="M521 740l80 -160h-68l-56 106l-94 -106h-74l136 160h76zM126 110l-56 400h76l38 -281zM157 0l247 510h76l38 -283l-55 -113l-40 279l-194 -393h-72zM492 0l246 510h79l-251 -510h-74z" />
    <glyph glyph-name="Ycircumflex" unicode="&#x176;" horiz-adv-x="602" 
d="M231 351l-148 349h94l111 -274zM220 0l48 276l319 424h98l-337 -438l-46 -262h-82zM460 885l87 -145h-71l-64 100l-100 -100h-77l139 145h86z" />
    <glyph glyph-name="ycircumflex" unicode="&#x177;" horiz-adv-x="531" 
d="M158 96l-88 414h79l66 -313zM76 -200l402 710h82l-402 -710h-82zM393 740l80 -160h-68l-56 106l-94 -106h-74l136 160h76z" />
    <glyph glyph-name="Ydieresis" unicode="&#x178;" horiz-adv-x="602" 
d="M231 351l-148 349h94l111 -274zM220 0l48 276l319 424h98l-337 -438l-46 -262h-82zM242 755l20 113h72l-20 -113h-72zM472 755l20 113h72l-20 -113h-72z" />
    <glyph glyph-name="Zacute" unicode="&#x179;" horiz-adv-x="577" 
d="M-5 0l12 72l571 628h47l-13 -72l-571 -628h-46zM105 628l13 72h360l-66 -72h-307zM141 0l66 72h307l-12 -72h-361zM394 740h-75l110 145h94z" />
    <glyph glyph-name="zacute" unicode="&#x17a;" horiz-adv-x="486" 
d="M325 580h-71l121 160h90zM78 443l12 67h263l-67 -67h-208zM0 0l12 67l448 443h36l-12 -67l-448 -443h-36zM143 0l67 67h208l-12 -67h-263z" />
    <glyph glyph-name="Zdotaccent" unicode="&#x17b;" horiz-adv-x="577" 
d="M342 755l20 113h77l-20 -113h-77zM-5 0l12 72l571 628h47l-13 -72l-571 -628h-46zM105 628l13 72h360l-66 -72h-307zM141 0l66 72h307l-12 -72h-361z" />
    <glyph glyph-name="zdotaccent" unicode="&#x17c;" horiz-adv-x="486" 
d="M78 443l12 67h263l-67 -67h-208zM0 0l12 67l448 443h36l-12 -67l-448 -443h-36zM143 0l67 67h208l-12 -67h-263zM271 610l20 113h78l-20 -113h-78z" />
    <glyph glyph-name="Zcaron" unicode="&#x17d;" horiz-adv-x="577" 
d="M-5 0l12 72l571 628h47l-13 -72l-571 -628h-46zM105 628l13 72h360l-66 -72h-307zM141 0l66 72h307l-12 -72h-361zM335 740l-87 145h71l64 -100l100 100h77l-139 -145h-86z" />
    <glyph glyph-name="zcaron" unicode="&#x17e;" horiz-adv-x="486" 
d="M267 580l-80 160h68l56 -106l94 106h74l-136 -160h-76zM78 443l12 67h263l-67 -67h-208zM0 0l12 67l448 443h36l-12 -67l-448 -443h-36zM143 0l67 67h208l-12 -67h-263z" />
    <glyph glyph-name="florin" unicode="&#x192;" horiz-adv-x="438" 
d="M68 333l12 67h120l28 159q11 64 57 102.5t109 38.5h77l-12 -67h-68q-33 0 -56 -19.5t-29 -52.5l-28 -161h140l-12 -67h-338zM-8 -96l13 67h47q34 0 56.5 19.5t29.5 53.5l37 214h78l-38 -213q-10 -63 -56 -102t-109 -39h-58z" />
    <glyph glyph-name="AEacute" unicode="&#x1fc;" horiz-adv-x="1018" 
d="M-40 0l566 664l-26 -148l-438 -516h-102zM486 0l32 180h-205l61 72h156l79 448h452l-13 -72h-369l-98 -556h369l-12 -72h-452zM699 315l12 72h244l-12 -72h-244zM685 740h-75l110 145h94z" />
    <glyph glyph-name="aeacute" unicode="&#x1fd;" horiz-adv-x="862" 
d="M502 580h-71l121 160h90zM22 118q0 87 57 133.5t154 46.5q55 0 85 -10l-10 -59q-28 7 -58 7q-63 0 -106 -26.5t-43 -81.5q0 -71 116 -71q52 0 87 16q9 -31 20 -48q-58 -35 -141 -35q-75 0 -118 33.5t-43 94.5zM517 -7q-78 9 -117.5 57.5t-24.5 130.5l29 164q10 55 -17 83
t-84 28q-120 0 -138 -99h-77q28 163 220 163q127 0 155 -83q51 67 147 82l-12 -69q-47 -8 -78.5 -37t-39.5 -78l-7 -40h265l7 40q9 47 -9.5 77t-62.5 38l12 67q77 -10 114.5 -58.5t22.5 -128.5l-17 -97h-343l-10 -57q-8 -48 11.5 -78.5t65.5 -37.5zM592 -9l12 69
q44 8 72.5 34t37.5 64h77q-17 -72 -67.5 -115t-131.5 -52z" />
    <glyph glyph-name="uni0218" unicode="&#x218;" horiz-adv-x="627" 
d="M196 -200l31 140h75l-47 -140h-59zM235 -8q-101 8 -148.5 63t-29.5 155h82q-23 -130 109 -146zM310 -9l13 73q70 8 111.5 45t41.5 105q0 70 -90 88l-128 25q-146 29 -146 150q0 96 65 160t184 72l-12 -73q-67 -6 -108 -42t-41 -100q0 -73 90 -91l127 -25
q147 -28 147 -146q0 -103 -67 -168t-187 -73zM424 636l12 72q207 -19 172 -218h-82q22 129 -102 146z" />
    <glyph glyph-name="uni0219" unicode="&#x219;" horiz-adv-x="521" 
d="M143 -200l31 140h75l-47 -140h-59zM183 -8q-81 6 -119 47t-25 115h78q-14 -85 77 -97zM258 -8l11 65q107 16 107 96q0 47 -70 61l-102 21q-118 24 -118 114q0 75 51.5 119t138.5 50l-12 -65q-45 -5 -72.5 -29t-27.5 -62q0 -48 70 -62l102 -21q119 -26 119 -111
q0 -79 -54 -123.5t-143 -52.5zM339 453l12 65q156 -15 130 -161h-77q15 84 -65 96z" />
    <glyph glyph-name="uni021A" unicode="&#x21a;" horiz-adv-x="565" 
d="M165 -200l31 140h75l-47 -140h-59zM201 0l97 553h83l-97 -553h-83zM80 628l13 72h545l-13 -72h-545z" />
    <glyph glyph-name="uni021B" unicode="&#x21b;" horiz-adv-x="395" 
d="M102 -200l31 140h75l-47 -140h-59zM58 443l12 67h100l30 170l81 23l-34 -193h158l-12 -67h-335zM144 368h78l-33 -188q-14 -81 12 -107t124 -9l-10 -64q-76 -15 -123 -8.5t-66 32t-22 66t8 94.5z" />
    <glyph glyph-name="circumflex" unicode="&#x2c6;" horiz-adv-x="392" 
d="M324 740l80 -160h-68l-56 106l-94 -106h-74l136 160h76z" />
    <glyph glyph-name="caron" unicode="&#x2c7;" horiz-adv-x="392" 
d="M220 580l-80 160h68l56 -106l94 106h74l-136 -160h-76z" />
    <glyph glyph-name="breve" unicode="&#x2d8;" horiz-adv-x="362" 
d="M140 740h58q-10 -52 4 -74t53 -22q38 0 59 22t31 74h57q-14 -82 -50 -118.5t-103 -36.5q-69 0 -96 37.5t-13 117.5z" />
    <glyph glyph-name="dotaccent" unicode="&#x2d9;" horiz-adv-x="178" 
d="M117 610l20 113h78l-20 -113h-78z" />
    <glyph glyph-name="ring" unicode="&#x2da;" horiz-adv-x="318" 
d="M346 679q0 -47 -31.5 -80t-78.5 -39l9 52q18 7 29.5 23.5t11.5 36.5q0 28 -24 36l9 52q36 -4 55.5 -25.5t19.5 -55.5zM184 649q0 -27 23 -37l-9 -52q-36 5 -55 26.5t-19 54.5q0 47 31.5 80t77.5 38l-9 -52q-40 -14 -40 -58z" />
    <glyph glyph-name="ogonek" unicode="&#x2db;" horiz-adv-x="266" 
d="M66 4l58 -4q-58 -65 -58 -109q0 -38 46 -38q15 0 38 5l-9 -51q-33 -11 -65 -11q-44 0 -66.5 20t-22.5 50q0 61 79 138z" />
    <glyph glyph-name="tilde" unicode="&#x2dc;" horiz-adv-x="442" 
d="M167 612l-45 26q62 99 119 99q22 0 41.5 -11t31 -24.5t24.5 -24.5t24 -11q25 0 69 63l44 -26q-61 -99 -118 -99q-28 0 -51 17.5t-40 35t-31 17.5q-25 0 -68 -62z" />
    <glyph glyph-name="hungarumlaut" unicode="&#x2dd;" horiz-adv-x="433" 
d="M178 580h-66l114 160h84zM341 580h-66l114 160h84z" />
    <glyph glyph-name="pi" unicode="&#x3c0;" 
d="M38 443l12 67h536l-12 -67h-536zM30 0l64 368h78l-64 -368h-78zM349 0l64 368h77l-64 -368h-77z" />
    <glyph glyph-name="Wgrave" unicode="&#x1e80;" horiz-adv-x="860" 
d="M583 740h-63l-88 145h82zM134 127l-53 573h81l37 -428zM160 0l311 700h80l38 -425l-63 -139l-40 414l-246 -550h-80zM549 0l311 700h85l-311 -700h-85z" />
    <glyph glyph-name="wgrave" unicode="&#x1e81;" horiz-adv-x="788" 
d="M126 110l-56 400h76l38 -281zM157 0l247 510h76l38 -283l-55 -113l-40 279l-194 -393h-72zM492 0l246 510h79l-251 -510h-74zM526 580h-58l-96 160h77z" />
    <glyph glyph-name="Wacute" unicode="&#x1e82;" horiz-adv-x="860" 
d="M531 740h-75l110 145h94zM134 127l-53 573h81l37 -428zM160 0l311 700h80l38 -425l-63 -139l-40 414l-246 -550h-80zM549 0l311 700h85l-311 -700h-85z" />
    <glyph glyph-name="wacute" unicode="&#x1e83;" horiz-adv-x="788" 
d="M456 580h-71l121 160h90zM126 110l-56 400h76l38 -281zM157 0l247 510h76l38 -283l-55 -113l-40 279l-194 -393h-72zM492 0l246 510h79l-251 -510h-74z" />
    <glyph glyph-name="Wdieresis" unicode="&#x1e84;" horiz-adv-x="860" 
d="M134 127l-53 573h81l37 -428zM160 0l311 700h80l38 -425l-63 -139l-40 414l-246 -550h-80zM549 0l311 700h85l-311 -700h-85zM371 755l20 113h72l-20 -113h-72zM601 755l20 113h72l-20 -113h-72z" />
    <glyph glyph-name="wdieresis" unicode="&#x1e85;" horiz-adv-x="788" 
d="M324 610l20 113h73l-20 -113h-73zM524 610l20 113h73l-20 -113h-73zM126 110l-56 400h76l38 -281zM157 0l247 510h76l38 -283l-55 -113l-40 279l-194 -393h-72zM492 0l246 510h79l-251 -510h-74z" />
    <glyph glyph-name="uni1E9E" unicode="&#x1e9e;" horiz-adv-x="664" 
d="M28 0l78 449q22 120 105.5 185.5t210.5 65.5h265l-13 -72h-265q-89 0 -147 -47t-73 -132l-79 -449h-82zM349 334l11 67l148 152h95l-151 -155q85 -8 130 -52t45 -111q0 -109 -67 -177t-182 -68q-82 0 -124.5 45t-28.5 128h83q-9 -48 15.5 -74.5t69.5 -26.5q67 0 108 45
t41 115q0 112 -171 112h-22z" />
    <glyph glyph-name="Ygrave" unicode="&#x1ef2;" horiz-adv-x="602" 
d="M231 351l-148 349h94l111 -274zM220 0l48 276l319 424h98l-337 -438l-46 -262h-82zM449 740h-63l-88 145h82z" />
    <glyph glyph-name="ygrave" unicode="&#x1ef3;" horiz-adv-x="531" 
d="M158 96l-88 414h79l66 -313zM76 -200l402 710h82l-402 -710h-82zM378 580h-58l-96 160h77z" />
    <glyph glyph-name="endash" unicode="&#x2013;" horiz-adv-x="510" 
d="M4 222l11 67h500l-11 -67h-500z" />
    <glyph glyph-name="emdash" unicode="&#x2014;" horiz-adv-x="1010" 
d="M4 222l11 67h1000l-11 -67h-1000z" />
    <glyph glyph-name="quoteleft" unicode="&#x2018;" horiz-adv-x="228" 
d="M124 560l82 238h58l-53 -238h-87z" />
    <glyph glyph-name="quoteright" unicode="&#x2019;" horiz-adv-x="228" 
d="M124 560l53 238h87l-82 -238h-58z" />
    <glyph glyph-name="quotesinglbase" unicode="&#x201a;" horiz-adv-x="228" 
d="M4 -115l53 238h87l-82 -238h-58z" />
    <glyph glyph-name="quotedblleft" unicode="&#x201c;" horiz-adv-x="365" 
d="M124 560l82 238h58l-53 -238h-87zM261 560l82 238h58l-53 -238h-87z" />
    <glyph glyph-name="quotedblright" unicode="&#x201d;" horiz-adv-x="365" 
d="M124 560l53 238h87l-82 -238h-58zM261 560l53 238h87l-82 -238h-58z" />
    <glyph glyph-name="quotedblbase" unicode="&#x201e;" horiz-adv-x="365" 
d="M4 -115l53 238h87l-82 -238h-58zM141 -115l53 238h87l-82 -238h-58z" />
    <glyph glyph-name="dagger" unicode="&#x2020;" horiz-adv-x="539" 
d="M260 -60h-83l94 475l-220 -10l13 72l216 -10l31 233h83l-51 -233l219 10l-13 -72l-216 10z" />
    <glyph glyph-name="daggerdbl" unicode="&#x2021;" horiz-adv-x="539" 
d="M244 320l33 130l-220 -10l13 72l216 -10l25 198h83l-45 -198l219 10l-12 -72l-216 10l-13 -130l-33 -129l220 10l-13 -72l-216 10l-25 -199h-83l45 199l-219 -10l12 72l216 -10z" />
    <glyph glyph-name="bullet" unicode="&#x2022;" horiz-adv-x="304" 
d="M153 233q-46 0 -72.5 25.5t-26.5 67.5q0 61 41 101t99 40q46 0 72.5 -25.5t26.5 -67.5q0 -60 -41 -100.5t-99 -40.5z" />
    <glyph glyph-name="ellipsis" unicode="&#x2026;" horiz-adv-x="863" 
d="M30 0l22 123h87l-21 -123h-88zM348 0l21 123h88l-22 -123h-87zM665 0l22 123h87l-21 -123h-88z" />
    <glyph glyph-name="perthousand" unicode="&#x2030;" horiz-adv-x="1156" 
d="M127 554l6 31q10 58 49.5 89t100.5 31t91 -32.5t20 -90.5l-5 -28h-61l5 31q6 32 -9 49.5t-48 17.5t-54.5 -17.5t-27.5 -49.5l-5 -31h-62zM114 479h62l-6 -31q-11 -67 57 -67q33 0 55 17.5t27 49.5l6 31h61l-5 -31q-10 -59 -49.5 -90t-100.5 -31t-91.5 32.5t-20.5 90.5z
M490 222l6 31q10 58 49 89t100 31t91.5 -32.5t20.5 -90.5l-5 -28h-61l5 31q6 32 -9 49.5t-48 17.5t-54.5 -17.5t-27.5 -49.5l-5 -31h-62zM477 147h61l-5 -31q-6 -32 9 -49.5t48 -17.5t54.5 17.5t27.5 49.5l5 31h62l-6 -31q-10 -59 -49 -90t-100 -31t-91.5 32.5t-20.5 90.5z
M96 0l601 700h74l-601 -700h-74zM822 222l6 31q10 58 49 89t100 31t91.5 -32.5t20.5 -90.5l-5 -28h-61l5 31q6 32 -9 49.5t-48 17.5t-54.5 -17.5t-27.5 -49.5l-5 -31h-62zM809 147h61l-5 -31q-6 -32 9 -49.5t48 -17.5t54.5 17.5t27.5 49.5l5 31h62l-6 -31q-10 -59 -49 -90
t-100 -31t-91.5 32.5t-20.5 90.5z" />
    <glyph glyph-name="guilsinglleft" unicode="&#x2039;" horiz-adv-x="257" 
d="M199 66l-179 160l12 68l235 160l-14 -80l-162 -114l122 -114z" />
    <glyph glyph-name="guilsinglright" unicode="&#x203a;" horiz-adv-x="257" 
d="M65 454l179 -160l-12 -68l-236 -160l14 80l162 115l-121 114z" />
    <glyph glyph-name="fraction" unicode="&#x2044;" horiz-adv-x="592" 
d="M-20 0l601 700h74l-601 -700h-74z" />
    <glyph glyph-name="Euro" unicode="&#x20ac;" horiz-adv-x="687" 
d="M46 320l11 62h70l14 77q20 112 91 176.5t185 73.5l-13 -73q-73 -11 -120.5 -57t-60.5 -121l-13 -76h231l-11 -62h-231l-14 -80q-13 -76 18 -121t100 -55l-13 -72q-104 12 -155 78t-32 176l13 74h-70zM365 -9l13 74q69 9 113.5 50t57.5 110h82q-19 -107 -88 -166t-178 -68
zM479 636l13 72q100 -11 150 -71.5t33 -161.5h-82q12 70 -18 111t-96 50z" />
    <glyph glyph-name="uni2117" unicode="&#x2117;" horiz-adv-x="880" 
d="M277 144l73 412h55l-73 -412h-55zM430 274l8 49h64q51 0 81 31t30 86q0 68 -81 68h-61l9 48h61q63 0 95.5 -28.5t32.5 -77.5q0 -81 -48 -128.5t-124 -47.5h-67zM361 -8q-132 14 -199 93t-67 190q0 97 32.5 178.5t88 135t125 84.5t146.5 36l-8 -50q-136 -13 -232.5 -115
t-96.5 -264q0 -96 55 -161.5t165 -76.5zM436 -9l9 51q63 6 121.5 34t105 74.5t74 116.5t27.5 153q0 101 -57 165t-162 74l9 49q125 -12 196 -89.5t71 -193.5q0 -189 -114 -306t-280 -128z" />
    <glyph glyph-name="trademark" unicode="&#x2122;" horiz-adv-x="590" 
d="M100 652l8 48h229l-8 -48h-229zM150 438l31 176h54l-31 -176h-54zM319 438l46 262h52l-46 -262h-52zM453 481l-29 72l15 87l29 -72l55 72l-15 -87zM521 438l46 262h51l-46 -262h-51z" />
    <glyph glyph-name="uni2126" unicode="&#x2126;" horiz-adv-x="662" 
d="M-25 0l12 72h175l-55 70q-50 64 -31 176l25 141q19 112 91.5 177t185.5 73l-12 -73q-74 -10 -121.5 -56t-60.5 -121l-30 -165q-14 -85 25 -130l77 -92l-12 -72h-269zM338 0l12 72l110 92q55 46 70 130l30 165q13 76 -18 121.5t-101 55.5l12 72q107 -12 157 -78t31 -176
l-24 -136q-19 -111 -92 -176l-80 -70h174l-12 -72h-269z" />
    <glyph glyph-name="arrowleft" unicode="&#x2190;" horiz-adv-x="680" 
d="M20 260l318 318l55 -54l-267 -264l267 -264l-55 -54zM233 260l39 39h388v-78h-388z" />
    <glyph glyph-name="arrowup" unicode="&#x2191;" horiz-adv-x="676" 
d="M338 640l318 -318l-54 -55l-264 267l-263 -267l-55 55zM339 427l38 -39v-388h-78v386z" />
    <glyph glyph-name="arrowright" unicode="&#x2192;" horiz-adv-x="680" 
d="M660 260l-318 -318l-55 54l267 264l-267 264l55 54zM447 260l-39 -39h-388v78h388z" />
    <glyph glyph-name="arrowdown" unicode="&#x2193;" horiz-adv-x="676" 
d="M338 -10l-318 318l55 55l263 -267l264 267l54 -55zM338 203l-39 39v388h78v-388z" />
    <glyph glyph-name="uni2196" unicode="&#x2196;" horiz-adv-x="520" 
d="M20 559h449v-78l-373 2l2 -373h-78v449zM171 408h55l274 -274l-55 -55l-274 274v55z" />
    <glyph glyph-name="uni2197" unicode="&#x2197;" horiz-adv-x="520" 
d="M500 559v-449h-77l2 373l-374 -2v78h449zM350 408v-55l-275 -274l-55 55l274 274h56z" />
    <glyph glyph-name="uni2198" unicode="&#x2198;" horiz-adv-x="520" 
d="M500 0h-449v78l374 -2l-2 373h77v-449zM350 151h-56l-274 274l55 55l275 -274v-55z" />
    <glyph glyph-name="uni2199" unicode="&#x2199;" horiz-adv-x="520" 
d="M20 0v449h78l-2 -373l373 2v-78h-449zM171 151v55l274 274l55 -55l-274 -274h-55z" />
    <glyph glyph-name="partialdiff" unicode="&#x2202;" 
d="M189 -8q-78 11 -116 58.5t-24 130.5l19 109q16 89 69.5 138t139.5 52l-15 -70q-97 -18 -115 -115l-21 -119q-18 -100 75 -116zM264 -8l12 69q46 8 76.5 38.5t39.5 79.5l18 102q21 112 -72 129l11 63q45 -13 65 -39q-16 89 -72 156t-144 102l34 58q155 -60 219 -195
t32 -304l-13 -67q-15 -85 -69.5 -135t-136.5 -57z" />
    <glyph glyph-name="emptyset" unicode="&#x2205;" horiz-adv-x="637" 
d="M210 104l67 57q97 -14 172.5 56.5t75.5 177.5q0 35 -12 64l-488 -414l-40 47l117 99q-27 47 -27 106q0 127 88 220.5t223 93.5q47 0 83 -12l-67 -57q-102 13 -175 -58t-73 -176q0 -35 11 -63l489 415l40 -47l-117 -99q27 -48 27 -108q0 -127 -88 -220.5t-222 -93.5
q-48 0 -84 12z" />
    <glyph glyph-name="uni2206" unicode="&#x2206;" horiz-adv-x="618" 
d="M-40 0l339 621l22 -116l-239 -433h322l15 -72h-459zM495 0l-135 700h83l135 -700h-83z" />
    <glyph glyph-name="product" unicode="&#x220f;" horiz-adv-x="662" 
d="M140 628l13 72h522l-13 -72h-522zM30 0l97 553h83l-97 -553h-83zM469 0l97 553h83l-97 -553h-83z" />
    <glyph glyph-name="summation" unicode="&#x2211;" horiz-adv-x="562" 
d="M140 628l13 72h452l-13 -72h-452zM110 147l185 203l-113 203h95l103 -185l-7 -44l-162 -177h-101zM30 0l12 72h452l-12 -72h-452z" />
    <glyph glyph-name="minus" unicode="&#x2212;" horiz-adv-x="512" 
d="M57 384h452l-11 -67h-452z" />
    <glyph glyph-name="radical" unicode="&#x221a;" horiz-adv-x="613" 
d="M219 0l-90 453h-89l11 67h144l100 -520h-76zM357 76l-22 114l278 510h83z" />
    <glyph glyph-name="infinity" unicode="&#x221e;" horiz-adv-x="618" 
d="M226 301l36 -38l-25 -20q-56 -43 -101 -43q-53 0 -81.5 33t-18.5 88l11 60q10 55 49.5 88t93.5 33q48 0 85 -43l145 -163q27 -31 56 -31t51 18.5t27 47.5l7 40q5 29 -9.5 47.5t-45.5 18.5q-28 0 -71 -36l-36 38l25 20q55 43 100 43q54 0 82 -33t18 -88l-10 -60
q-10 -55 -50 -88t-93 -33q-46 0 -85 43l-145 163q-27 31 -56 31q-30 0 -51.5 -18.5t-26.5 -47.5l-7 -40q-5 -29 9.5 -47.5t44.5 -18.5q29 0 72 36z" />
    <glyph glyph-name="integral" unicode="&#x222b;" horiz-adv-x="338" 
d="M70 -61l115 660q11 64 57 102.5t109 38.5h77l-12 -67h-68q-33 0 -56 -19.5t-29 -52.5l-115 -660q-11 -64 -57 -102.5t-109 -38.5h-77l12 67h67q34 0 57 19.5t29 52.5z" />
    <glyph glyph-name="approxequal" unicode="&#x2248;" horiz-adv-x="512" 
d="M43 234q39 53 68.5 73t59.5 20q39 0 99 -39t84 -39q37 0 89 61l38 -27q-39 -53 -68.5 -73t-60.5 -20q-38 0 -100.5 39t-87.5 39q-20 0 -36.5 -13t-46.5 -48zM78 430q39 53 68 72.5t60 19.5q39 0 99 -39t84 -39q37 0 89 61l38 -27q-39 -53 -68.5 -72.5t-60.5 -19.5
q-38 0 -100.5 39t-87.5 39q-20 0 -36.5 -13t-46.5 -48z" />
    <glyph glyph-name="notequal" unicode="&#x2260;" horiz-adv-x="512" 
d="M35 259h161l93 183h-221l11 67h244l74 145h69l-75 -145h140l-11 -67h-162l-93 -183h222l-12 -67h-244l-73 -144h-68l72 144h-139z" />
    <glyph glyph-name="lessequal" unicode="&#x2264;" horiz-adv-x="512" 
d="M-10 0l12 67h452l-12 -67h-452zM48 332l11 70l422 -172l-12 -75zM251 403l-86 36l378 138l-13 -75z" />
    <glyph glyph-name="greaterequal" unicode="&#x2265;" horiz-adv-x="512" 
d="M-10 0l12 67h452l-12 -67h-452zM307 329l87 -36l-377 -138l12 75zM500 330l-422 173l13 74l421 -177z" />
    <glyph glyph-name="commaaccent" unicode="&#xf6c3;" horiz-adv-x="182" 
d="M-26 -200l31 140h75l-47 -140h-59z" />
    <glyph glyph-name="f_f" unicode="&#xfb00;" horiz-adv-x="690" 
d="M58 443l12 67h110l8 46q7 39 15 66t22 53.5t32.5 40t46.5 25t64.5 9.5t86.5 -8l-11 -64q-62 12 -99 1t-53 -36.5t-26 -80.5l-9 -52h248l8 46q7 39 15 66t22 53.5t32.5 40t46.5 25t64.5 9.5t86.5 -8l-11 -64q-62 12 -99 1t-53 -36.5t-26 -80.5l-9 -52h158l-12 -67h-670z
M55 -200l99 568h78l-99 -568h-78zM380 -200l99 568h78l-99 -568h-78z" />
    <glyph glyph-name="f_i" unicode="&#xfb01;" horiz-adv-x="603" 
d="M58 443l12 67h110l8 46q7 39 15 66t22 53.5t32.5 40t46.5 25t64.5 9.5t86.5 -8l-11 -64q-62 12 -99 1t-53 -36.5t-26 -80.5l-9 -52h325l-89 -510h-78l78 443h-435zM55 -200l99 568h78l-99 -568h-78zM522 610l20 113h78l-20 -113h-78z" />
    <glyph glyph-name="f_l" unicode="&#xfb02;" horiz-adv-x="688" 
d="M58 443l12 67h110l8 45q8 49 22 81t42 61t78.5 42.5t124.5 13.5q66 0 167 -14l-101 -579q-12 -65 13 -86.5t109 -9.5l-10 -64q-131 -24 -169 20t-20 147l91 513q-49 6 -94 6q-88 0 -125.5 -29.5t-49.5 -95.5l-9 -51h158l-12 -67h-345zM55 -200l99 568h78l-99 -568h-78z
" />
    <glyph glyph-name="a.salt" horiz-adv-x="529" 
d="M22 118q0 87 57 133.5t154 46.5q55 0 85 -10l-10 -59q-28 7 -58 7q-63 0 -106 -26.5t-43 -81.5q0 -71 116 -71q36 0 63 7l-11 -62q-36 -12 -86 -12q-75 0 -118 33.5t-43 94.5zM344 0l60 345q10 55 -17 83t-84 28q-120 0 -138 -99h-77q28 163 220 163q94 0 141 -46
t32 -134l-60 -340h-77z" />
    <glyph glyph-name="aacute.salt" horiz-adv-x="529" 
d="M346 580h-71l121 160h90zM22 118q0 87 57 133.5t154 46.5q55 0 85 -10l-10 -59q-28 7 -58 7q-63 0 -106 -26.5t-43 -81.5q0 -71 116 -71q36 0 63 7l-11 -62q-36 -12 -86 -12q-75 0 -118 33.5t-43 94.5zM344 0l60 345q10 55 -17 83t-84 28q-120 0 -138 -99h-77
q28 163 220 163q94 0 141 -46t32 -134l-60 -340h-77z" />
    <glyph glyph-name="abreve.salt" horiz-adv-x="529" 
d="M22 118q0 87 57 133.5t154 46.5q55 0 85 -10l-10 -59q-28 7 -58 7q-63 0 -106 -26.5t-43 -81.5q0 -71 116 -71q36 0 63 7l-11 -62q-36 -12 -86 -12q-75 0 -118 33.5t-43 94.5zM344 0l60 345q10 55 -17 83t-84 28q-120 0 -138 -99h-77q28 163 220 163q94 0 141 -46
t32 -134l-60 -340h-77zM223 740h58q-10 -52 4 -74t53 -22q38 0 59 22t31 74h57q-14 -82 -50 -118.5t-103 -36.5q-69 0 -96 37.5t-13 117.5z" />
    <glyph glyph-name="acircumflex.salt" horiz-adv-x="529" 
d="M392 740l80 -160h-68l-56 106l-94 -106h-74l136 160h76zM22 118q0 87 57 133.5t154 46.5q55 0 85 -10l-10 -59q-28 7 -58 7q-63 0 -106 -26.5t-43 -81.5q0 -71 116 -71q36 0 63 7l-11 -62q-36 -12 -86 -12q-75 0 -118 33.5t-43 94.5zM344 0l60 345q10 55 -17 83t-84 28
q-120 0 -138 -99h-77q28 163 220 163q94 0 141 -46t32 -134l-60 -340h-77z" />
    <glyph glyph-name="adieresis.salt" horiz-adv-x="529" 
d="M194 610l20 113h73l-20 -113h-73zM394 610l20 113h73l-20 -113h-73zM22 118q0 87 57 133.5t154 46.5q55 0 85 -10l-10 -59q-28 7 -58 7q-63 0 -106 -26.5t-43 -81.5q0 -71 116 -71q36 0 63 7l-11 -62q-36 -12 -86 -12q-75 0 -118 33.5t-43 94.5zM344 0l60 345
q10 55 -17 83t-84 28q-120 0 -138 -99h-77q28 163 220 163q94 0 141 -46t32 -134l-60 -340h-77z" />
    <glyph glyph-name="agrave.salt" horiz-adv-x="529" 
d="M22 118q0 87 57 133.5t154 46.5q55 0 85 -10l-10 -59q-28 7 -58 7q-63 0 -106 -26.5t-43 -81.5q0 -71 116 -71q36 0 63 7l-11 -62q-36 -12 -86 -12q-75 0 -118 33.5t-43 94.5zM344 0l60 345q10 55 -17 83t-84 28q-120 0 -138 -99h-77q28 163 220 163q94 0 141 -46
t32 -134l-60 -340h-77zM377 580h-58l-96 160h77z" />
    <glyph glyph-name="amacron.salt" horiz-adv-x="529" 
d="M22 118q0 87 57 133.5t154 46.5q55 0 85 -10l-10 -59q-28 7 -58 7q-63 0 -106 -26.5t-43 -81.5q0 -71 116 -71q36 0 63 7l-11 -62q-36 -12 -86 -12q-75 0 -118 33.5t-43 94.5zM344 0l60 345q10 55 -17 83t-84 28q-120 0 -138 -99h-77q28 163 220 163q94 0 141 -46
t32 -134l-60 -340h-77zM196 619l10 57h272l-10 -57h-272z" />
    <glyph glyph-name="aogonek.salt" horiz-adv-x="529" 
d="M344 0l60 345q10 55 -17 83t-84 28q-120 0 -138 -99h-77q28 163 220 163q94 0 141 -46t32 -134l-60 -340q-58 -65 -58 -109q0 -38 46 -38q15 0 38 5l-9 -51q-33 -11 -65 -11q-44 0 -66.5 20t-22.5 50q0 61 75 134h-15zM22 118q0 87 57 133.5t154 46.5q55 0 85 -10
l-10 -59q-28 7 -58 7q-63 0 -106 -26.5t-43 -81.5q0 -71 116 -71q36 0 63 7l-11 -62q-36 -12 -86 -12q-75 0 -118 33.5t-43 94.5z" />
    <glyph glyph-name="aring.salt" horiz-adv-x="529" 
d="M450 679q0 -47 -31.5 -80t-78.5 -39l9 52q18 7 29.5 23.5t11.5 36.5q0 28 -24 36l9 52q36 -4 55.5 -25.5t19.5 -55.5zM288 649q0 -27 23 -37l-9 -52q-36 5 -55 26.5t-19 54.5q0 47 31.5 80t77.5 38l-9 -52q-40 -14 -40 -58zM22 118q0 87 57 133.5t154 46.5q55 0 85 -10
l-10 -59q-28 7 -58 7q-63 0 -106 -26.5t-43 -81.5q0 -71 116 -71q36 0 63 7l-11 -62q-36 -12 -86 -12q-75 0 -118 33.5t-43 94.5zM344 0l60 345q10 55 -17 83t-84 28q-120 0 -138 -99h-77q28 163 220 163q94 0 141 -46t32 -134l-60 -340h-77z" />
    <glyph glyph-name="atilde.salt" horiz-adv-x="529" 
d="M22 118q0 87 57 133.5t154 46.5q55 0 85 -10l-10 -59q-28 7 -58 7q-63 0 -106 -26.5t-43 -81.5q0 -71 116 -71q36 0 63 7l-11 -62q-36 -12 -86 -12q-75 0 -118 33.5t-43 94.5zM344 0l60 345q10 55 -17 83t-84 28q-120 0 -138 -99h-77q28 163 220 163q94 0 141 -46
t32 -134l-60 -340h-77zM208 612l-45 26q62 99 119 99q22 0 41.5 -11t31 -24.5t24.5 -24.5t24 -11q25 0 69 63l44 -26q-61 -99 -118 -99q-28 0 -51 17.5t-40 35t-31 17.5q-25 0 -68 -62z" />
    <glyph glyph-name="i.TRK" horiz-adv-x="218" 
d="M30 0l90 510h77l-89 -510h-78zM137 610l20 113h78l-20 -113h-78z" />
    <glyph glyph-name="iacute_jacute" horiz-adv-x="455" 
d="M30 0l90 510h77l-89 -510h-78zM261 -39l96 549h78l-95 -541q-18 -103 -66 -147t-154 -20l11 64q62 -13 90 9t40 86zM434 580h-66l125 160h85zM196 580h-66l126 160h85z" />
    <glyph glyph-name="zero.tnumlnum" horiz-adv-x="600" 
d="M88 390l17 97q19 107 91 165t185 58q112 0 167.5 -60.5t36.5 -167.5l-16 -92h-83l18 97q13 72 -21.5 111.5t-108.5 39.5q-75 0 -124.5 -39.5t-62.5 -111.5l-17 -97h-82zM74 315h83l-18 -102q-13 -72 21.5 -111.5t108.5 -39.5q75 0 124.5 39.5t61.5 111.5l18 102h82
l-17 -102q-19 -107 -91 -165t-185 -58q-112 0 -168 60.5t-37 167.5z" />
    <glyph glyph-name="zero.tnumlnum..zero" horiz-adv-x="600" 
d="M74 315h83l-18 -102q-6 -35 -2 -59l339 450q-34 34 -102 34q-75 0 -124.5 -39.5t-62.5 -111.5l-17 -97h-82l17 97q19 107 91 165t185 58q112 0 167.5 -60.5t36.5 -167.5l-16 -92h-83l18 97q6 32 1 60l-340 -451q34 -34 104 -34q75 0 124.5 39.5t61.5 111.5l18 102h82
l-17 -102q-19 -107 -91 -165t-185 -58q-112 0 -168 60.5t-37 167.5z" />
    <glyph glyph-name="one.tnumlnum" horiz-adv-x="600" 
d="M99 476l17 92l146 83l-16 -91zM249 147l98 553h82l-97 -553h-83zM17 0l12 72h491l-12 -72h-491z" />
    <glyph glyph-name="two.tnumlnum" horiz-adv-x="600" 
d="M106 465l6 36q16 94 76 147t155 60l-13 -73q-55 -8 -90 -42.5t-45 -91.5l-7 -36h-82zM124 147l276 235q94 81 94 160q0 37 -23 61.5t-66 31.5l13 73q81 -10 120.5 -52t39.5 -100q0 -121 -129 -225l-216 -184h-109zM24 0l12 72h472l-12 -72h-472z" />
    <glyph glyph-name="three.tnumlnum" horiz-adv-x="600" 
d="M218 -8q-90 11 -132.5 60.5t-28.5 126.5l5 27h82l-3 -19q-17 -104 90 -122zM293 -9l13 74q60 8 98.5 48t38.5 108q0 41 -31 67.5t-95 26.5h-51l12 72h52q75 0 120.5 42.5t45.5 109.5q0 38 -22 64t-67 32l13 73q79 -8 121 -49t42 -105q0 -70 -37.5 -124.5t-107.5 -80.5
q90 -34 90 -128q0 -100 -65.5 -161.5t-169.5 -68.5zM113 495l4 25q13 80 72 130.5t156 58.5l-13 -74q-55 -7 -89.5 -39t-43.5 -82l-4 -19h-82z" />
    <glyph glyph-name="four.tnumlnum" horiz-adv-x="600" 
d="M37 159l13 72l316 469h92l-319 -469h139l-13 -72h-228zM313 0l70 397h82l-29 -166h116l-13 -72h-116l-28 -159h-82z" />
    <glyph glyph-name="five.tnumlnum" horiz-adv-x="600" 
d="M220 -8q-87 11 -129.5 62.5t-27.5 139.5h82q-10 -55 13.5 -88t74.5 -41zM295 -8l13 73q61 11 102.5 63.5t41.5 140.5q0 116 -123 116q-110 0 -158 -80h-80l101 395h69l-79 -309q73 61 169 61q89 0 136.5 -46.5t47.5 -125.5q0 -131 -69.5 -205.5t-170.5 -82.5zM319 628
l18 72h242l-13 -72h-247z" />
    <glyph glyph-name="six.tnumlnum" horiz-adv-x="600" 
d="M221 -7q-87 11 -130 69.5t-27 148.5l52 295q15 88 74.5 141.5t157.5 61.5l-13 -74q-56 -8 -91.5 -41.5t-44.5 -87.5l-53 -298q-11 -58 12.5 -95.5t75.5 -47.5zM296 -8l13 73q61 11 101.5 58t40.5 123q0 50 -31.5 79.5t-96.5 29.5q-40 0 -77 -14l12 66q45 15 93 15
q94 0 139 -46t45 -117q0 -119 -68.5 -188.5t-170.5 -78.5zM410 635l13 73q90 -10 132.5 -62.5t26.5 -142.5h-82q10 57 -13.5 90.5t-76.5 41.5z" />
    <glyph glyph-name="seven.tnumlnum" horiz-adv-x="600" 
d="M108 0l363 553h86l-353 -553h-96zM134 628l13 72h472l-13 -72h-472z" />
    <glyph glyph-name="eight.tnumlnum" horiz-adv-x="600" 
d="M221 -8q-90 8 -132.5 51t-42.5 106q0 73 39.5 127t109.5 81q-74 39 -74 127q0 93 61 153.5t165 71.5l-12 -74q-64 -11 -98.5 -51t-34.5 -96q0 -43 30.5 -70.5t96.5 -27.5q76 0 123 41t47 112q0 35 -22 60t-67 32l12 73q82 -10 122.5 -51t40.5 -98q0 -70 -35.5 -122
t-97.5 -79q88 -40 88 -133q0 -104 -68.5 -165t-175.5 -69l13 73q65 9 106.5 48.5t41.5 107.5q0 45 -33.5 73.5t-106.5 28.5q-85 0 -135.5 -43t-50.5 -115q0 -38 25 -65t78 -35z" />
    <glyph glyph-name="nine.tnumlnum" horiz-adv-x="600" 
d="M221 -8q-92 11 -133.5 63.5t-25.5 141.5h82q-20 -115 90 -132zM296 -9l13 74q116 18 136 129l53 298q10 58 -13 95.5t-76 47.5l13 72q88 -11 131 -70t27 -148l-52 -295q-15 -87 -74.5 -141t-157.5 -62zM109 441q0 116 67.5 187t170.5 80l-13 -73q-60 -11 -100.5 -58
t-40.5 -123q0 -47 30.5 -78t97.5 -31q41 0 77 14l-12 -66q-43 -15 -93 -15q-94 0 -139 46t-45 117z" />
    <glyph glyph-name="emdash.case" horiz-adv-x="1010" 
d="M21 317l11 67h1000l-11 -67h-1000z" />
    <glyph glyph-name="endash.case" horiz-adv-x="510" 
d="M21 317l11 67h500l-11 -67h-500z" />
    <glyph glyph-name="hyphen.case" horiz-adv-x="259" 
d="M46 317l11 67h199l-11 -67h-199z" />
    <glyph glyph-name="guilsinglleft.case" horiz-adv-x="257" 
d="M215 156l-179 160l12 68l235 160l-14 -80l-162 -114l122 -114z" />
    <glyph glyph-name="guilsinglright.case" horiz-adv-x="257" 
d="M81 544l179 -160l-12 -68l-236 -160l14 80l162 115l-121 114z" />
    <glyph glyph-name="guillemotleft.case" horiz-adv-x="436" 
d="M215 156l-179 160l12 68l235 160l-14 -80l-162 -114l122 -114zM393 156l-179 160l12 68l235 160l-13 -80l-162 -114l121 -114z" />
    <glyph glyph-name="guillemotright.case" horiz-adv-x="436" 
d="M264 544l179 -160l-12 -68l-235 -160l14 80l161 115l-121 114zM86 544l179 -160l-12 -68l-235 -160l13 80l162 115l-121 114z" />
    <glyph glyph-name="questiondown.case" horiz-adv-x="627" 
d="M553 210l-4 -23q-15 -85 -79 -136.5t-161 -59.5l12 68q63 9 102 42.5t48 85.5l4 23h78zM401 505l-33 -189h-39q-83 0 -137 -40.5t-54 -117.5q0 -38 26.5 -64.5t81.5 -34.5l-12 -67q-84 8 -129.5 50.5t-45.5 105.5q0 102 68.5 162.5t174.5 69.5l22 125h77zM435 700
l-20 -112h-77l19 112h78z" />
    <glyph glyph-name="exclamdown.case" horiz-adv-x="258" 
d="M49 0l89 505h78l-89 -505h-78zM153 588l20 112h77l-19 -112h-78z" />
    <glyph glyph-name="at.case" horiz-adv-x="1039" 
d="M313 292l24 138q16 93 72.5 141.5t144.5 48.5q50 0 83 -14l-12 -66q-29 13 -65 13q-123 0 -145 -118l-26 -148q-10 -58 19 -94t86 -36q45 0 84 20q2 -21 17 -58q-55 -29 -124 -29q-89 0 -131.5 54.5t-26.5 147.5zM781 166q64 0 107.5 92t43.5 194q0 135 -84.5 214
t-231.5 79q-132 0 -241 -60t-173.5 -173t-64.5 -257q0 -136 84 -215t233 -79q119 0 223 53l25 -63q-117 -56 -248 -56q-182 0 -285.5 96t-103.5 262q0 163 74.5 291.5t199.5 197t277 68.5q181 0 284.5 -96t103.5 -262q0 -144 -65.5 -248t-164.5 -104q-70 0 -103 43t-18 127
l60 340h77l-64 -366q-7 -37 8.5 -57.5t46.5 -20.5z" />
    <glyph glyph-name="caron.salt" horiz-adv-x="190" 
d="M112 580l52 200h77l-78 -200h-51z" />
    <glyph glyph-name="acute.case" horiz-adv-x="278" 
d="M215 740h-75l110 145h94z" />
    <glyph glyph-name="breve.case" horiz-adv-x="382" 
d="M166 885h58q-16 -89 68 -89q82 0 98 89h58q-14 -76 -54 -111.5t-108 -35.5q-147 0 -120 147z" />
    <glyph glyph-name="caron.case" horiz-adv-x="412" 
d="M253 740l-87 145h71l64 -100l100 100h77l-139 -145h-86z" />
    <glyph glyph-name="circumflex.case" horiz-adv-x="412" 
d="M365 885l87 -145h-71l-64 100l-100 -100h-77l139 145h86z" />
    <glyph glyph-name="dieresis.case" horiz-adv-x="403" 
d="M143 755l20 113h72l-20 -113h-72zM373 755l20 113h72l-20 -113h-72z" />
    <glyph glyph-name="dotaccent.case" horiz-adv-x="178" 
d="M143 755l20 113h77l-20 -113h-77z" />
    <glyph glyph-name="grave.case" horiz-adv-x="278" 
d="M318 740h-63l-88 145h82z" />
    <glyph glyph-name="hungarumlaut.case" horiz-adv-x="484" 
d="M213 740h-73l119 145h92zM412 740h-73l119 145h92z" />
    <glyph glyph-name="macron.case" horiz-adv-x="402" 
d="M146 774l10 57h302l-10 -57h-302z" />
    <glyph glyph-name="ring.case" horiz-adv-x="318" 
d="M374 838q0 -47 -31.5 -80t-78.5 -39l9 52q18 7 29.5 23.5t11.5 36.5q0 28 -24 36l9 52q36 -4 55.5 -25.5t19.5 -55.5zM212 808q0 -27 23 -37l-9 -52q-36 5 -55 26.5t-19 54.5q0 47 31.5 80t77.5 38l-9 -52q-40 -14 -40 -58z" />
    <glyph glyph-name="tilde.case" horiz-adv-x="467" 
d="M193 757l-45 26q62 99 121 99q28 0 55.5 -18t49 -35.5t36.5 -17.5q29 0 71 63l45 -26q-61 -99 -120 -99q-28 0 -55.5 17.5t-50 35t-36.5 17.5q-29 0 -71 -62z" />
    <glyph glyph-name="arrowleft.case" horiz-adv-x="760" 
d="M20 350l371 371l55 -54l-320 -317l320 -316l-55 -55zM233 350l40 39h467v-78h-468z" />
    <glyph glyph-name="arrowright.case" horiz-adv-x="760" 
d="M740 350l-371 -371l-55 55l320 316l-320 317l55 54zM528 350l-40 -39h-468v78h468z" />
    <glyph glyph-name="arrowup.case" horiz-adv-x="782" 
d="M391 720l371 -371l-54 -55l-317 320l-316 -320l-55 55zM391 507l39 -40v-467h-78v467z" />
    <glyph glyph-name="arrowdown.case" horiz-adv-x="782" 
d="M391 -20l-371 371l55 55l316 -320l317 320l54 -55zM391 194l-39 39v467h78v-466z" />
    <glyph glyph-name="uni2196.case" horiz-adv-x="583" 
d="M20 700h525v-77l-449 2l2 -450h-78v525zM172 549l55 -1l330 -330l-55 -55l-330 330v56z" />
    <glyph glyph-name="uni2197.case" horiz-adv-x="583" 
d="M563 700v-525h-77l2 450l-450 -2v77h525zM412 549l-1 -56l-330 -330l-55 55l330 330z" />
    <glyph glyph-name="uni2198.case" horiz-adv-x="583" 
d="M563 0h-525v78l450 -3l-2 450h77v-525zM412 152h-56l-330 330l55 55l330 -329z" />
    <glyph glyph-name="uni2199.case" horiz-adv-x="583" 
d="M20 0v525h78l-2 -449l449 2v-78h-525zM172 152v56l330 329l55 -55l-330 -330h-55z" />
  </font>
</defs>
</svg>
